<svg width="74" height="73" viewBox="0 0 74 73" fill="none" xmlns="http://www.w3.org/2000/svg">
<path d="M61.333 12.1667H12.6663C9.30661 12.1667 6.58301 14.8903 6.58301 18.25V54.75C6.58301 58.1097 9.30661 60.8333 12.6663 60.8333H61.333C64.6927 60.8333 67.4163 58.1097 67.4163 54.75V18.25C67.4163 14.8903 64.6927 12.1667 61.333 12.1667Z" stroke="#CDCDCD" stroke-width="2" stroke-linecap="round" stroke-linejoin="round"/>
<path d="M24.8333 36.5C28.1931 36.5 30.9167 33.7764 30.9167 30.4167C30.9167 27.0569 28.1931 24.3333 24.8333 24.3333C21.4736 24.3333 18.75 27.0569 18.75 30.4167C18.75 33.7764 21.4736 36.5 24.8333 36.5Z" stroke="#CDCDCD" stroke-width="2" stroke-linecap="round" stroke-linejoin="round"/>
<path d="M24.833 36.5H49.1663" stroke="#CDCDCD" stroke-width="2" stroke-linecap="round" stroke-linejoin="round"/>
<path d="M49.1663 36.5C52.5261 36.5 55.2497 33.7764 55.2497 30.4167C55.2497 27.0569 52.5261 24.3333 49.1663 24.3333C45.8066 24.3333 43.083 27.0569 43.083 30.4167C43.083 33.7764 45.8066 36.5 49.1663 36.5Z" stroke="#CDCDCD" stroke-width="2" stroke-linecap="round" stroke-linejoin="round"/>
<path d="M18.75 60.8333L20.8792 52.0125C21.0906 51.0474 21.6311 50.1859 22.4079 49.5755C23.1848 48.965 24.1498 48.6438 25.1375 48.6667H48.8625C49.8096 48.6274 50.7427 48.9052 51.514 49.4562C52.2854 50.0071 52.8508 50.7997 53.1208 51.7083L55.25 60.8333" stroke="#CDCDCD" stroke-width="2" stroke-linecap="round" stroke-linejoin="round"/>
</svg>
