<svg width="224" height="71" viewBox="0 0 224 71" fill="none" xmlns="http://www.w3.org/2000/svg">
<g id="Layer_1" clip-path="url(#clip0_161_7005)">
<g id="Group">
<path id="Vector" d="M72.2457 39.3839C72.2457 39.3839 72.2457 39.3255 72.2457 39.2995C72.2327 39.0464 72.2197 38.7869 72.2067 38.5273C72.0963 36.4702 71.9664 33.9069 70.8165 31.4474C70.81 31.4344 70.8035 31.415 70.797 31.402C69.7706 29.2735 67.9581 27.6641 65.6909 26.8854C65.6324 26.8659 65.5675 26.8465 65.509 26.827C64.4826 26.522 63.3003 26.3598 62.0919 26.3598C59.0322 26.3598 56.2972 27.3137 54.4782 28.9555C53.0945 27.1969 50.9312 26.1261 48.7095 26.1261C47.2543 26.1261 45.6107 26.1261 43.8307 26.5415C43.7853 26.5544 43.7333 26.5674 43.6878 26.5739C43.5124 26.6193 43.2266 26.7037 42.8823 26.8205C42.6484 25.8146 42.3821 24.9126 42.0767 24.1599C39.9589 18.7997 35.5869 16.3856 32.1893 16.3856C31.007 16.3856 29.8441 16.6322 28.7268 17.1189C25.5761 18.4947 23.5362 21.6939 21.9511 24.8802C20.4115 21.8821 19.1447 19.7666 17.5401 18.4882C15.9485 17.2033 14.0516 16.5154 12.0767 16.5154C8.77005 16.5154 4.20962 18.8386 2.00087 23.9457C0.454742 27.5733 -0.045475 33.9069 -6.57514e-07 38.6311C0.05197 43.5565 0.675618 50.1627 3.34561 53.6799C4.97619 55.8409 7.54224 57.0739 10.4006 57.0739C14.7467 57.0739 18.573 54.3613 19.7034 50.4807C19.8463 49.9875 19.9827 49.371 19.9762 48.2938C20.6648 48.469 21.3794 48.5598 22.12 48.5598C22.7956 48.5598 23.4648 48.482 24.1209 48.3262C24.3742 51.3113 25.602 53.2451 26.6934 54.4002C28.3695 56.1783 30.6692 57.1517 33.1768 57.1517C33.7809 57.1517 34.3656 57.0868 34.9438 56.983C34.9438 57.8072 35.1776 58.6313 35.6324 59.3386L36.5743 60.7858L36.0222 63.0441C35.6129 64.7053 36.1716 66.4055 37.4838 67.4763C38.7571 68.5211 40.4786 68.7352 41.9728 68.0344L42.538 67.7683C43.4734 68.4951 44.4414 69.0337 45.2664 69.4036C45.2859 69.4166 45.3119 69.4231 45.3314 69.4361C47.6311 70.4289 50.0737 70.7599 51.7108 70.9286C51.7498 70.9286 51.7823 70.9351 51.8212 70.9351C52.4904 70.987 53.1595 71.013 53.8156 71.013C56.9598 71.013 59.8182 70.4484 62.3063 69.3258L62.3388 69.3128C63.8849 68.6054 65.2946 67.671 66.399 66.6262C66.4055 66.6197 66.412 66.6132 66.425 66.6002C69.2444 63.8942 71.2777 60.046 72.0118 56.042C72.8953 51.3762 72.642 46.7882 72.4016 42.356C72.3496 41.3631 72.2912 40.3768 72.2522 39.3904L72.2457 39.3839Z" fill="#612FF1"/>
<path id="Vector_2" d="M222.038 25.6265C221.148 23.9392 219.349 22.9723 217.445 23.154L216.191 23.2773L215.555 22.2715C214.626 20.8049 212.963 19.9742 211.228 20.117C209.702 20.2403 208.357 21.0969 207.597 22.3948C207.447 22.3623 207.298 22.3299 207.142 22.3039C205.973 22.1027 204.816 21.9989 203.718 21.9989C203.634 21.9989 203.556 21.9989 203.472 21.9989C202.114 22.0184 200.691 22.226 199.255 22.6284C197.761 23.0372 196.352 23.6602 195.065 24.4713C194.247 24.9905 193.513 25.594 192.85 26.2689C192.506 25.9769 192.148 25.7043 191.759 25.4707C190.349 24.6076 188.55 24.1274 186.679 24.1274C184.522 24.1274 182.56 24.7634 181.105 25.9185C180.812 25.6589 180.507 25.4188 180.182 25.2111C180.117 25.1657 180.052 25.1268 179.981 25.0878C178.552 24.2637 176.869 23.8159 175.102 23.8029C174.803 23.79 174.504 23.7835 174.212 23.7835C173.264 23.7835 171.841 23.8484 170.334 24.4259C169.613 24.6855 168.937 25.0749 168.32 25.5551C167.32 24.7504 166.131 24.2248 164.825 24.0236C164.357 23.9457 163.876 23.9068 163.383 23.9068C162.278 23.9068 161.103 24.1015 159.79 24.5038C159.738 24.5168 159.693 24.5362 159.647 24.5492C159.225 24.692 158.803 24.8607 158.387 25.0489C157.854 24.5752 157.25 24.1858 156.607 23.9003C155.555 23.4201 154.379 23.1865 153.008 23.1865C152.774 23.1865 152.534 23.1865 152.248 23.2059C151.098 23.2189 149.909 23.3811 148.721 23.6926C148.688 23.6991 148.662 23.7056 148.63 23.7186C147.116 24.1469 145.752 25.0294 144.777 26.191C144.758 26.217 144.738 26.2365 144.719 26.2624C144.517 26.5155 144.335 26.7816 144.173 27.0606C142.581 25.7433 140.737 24.7504 138.807 24.2118C138.781 24.2053 138.749 24.1988 138.723 24.1923C137.378 23.8484 135.949 23.6732 134.474 23.6732C133.656 23.6732 132.824 23.7251 131.986 23.8354C131.973 23.8354 131.96 23.8354 131.953 23.8354C130.07 24.095 128.231 24.7309 126.594 25.6719C126.652 24.9516 126.685 24.1599 126.62 23.3033C126.503 21.2851 125.814 19.494 124.619 18.1313C124.613 18.1248 124.606 18.1118 124.593 18.1053C123.437 16.8009 121.826 15.8081 119.935 15.2305C118.643 14.8152 117.324 14.6075 116.018 14.6075C115.193 14.6075 114.381 14.6919 113.601 14.8606C112.322 15.1137 111.042 15.6458 109.989 16.3726C109.957 16.3921 109.924 16.4181 109.892 16.4375C108.118 17.7289 106.793 19.7601 106.053 22.2974C105.78 23.2449 105.578 24.1923 105.429 25.1268C101.875 25.1592 98.4909 26.6063 96.1847 29.0399C96.0483 26.0353 95.7624 23.5044 95.3337 22.0443C95.0608 21.0904 94.5541 19.9807 93.6251 18.9619C94.3722 18.2156 94.8854 17.2357 95.0348 16.1325L95.1388 15.3733L95.7105 15.0034C97.367 13.9262 98.2375 11.9729 97.9192 10.0261C97.6009 8.07924 96.1587 6.49584 94.2423 6.00914L91.9231 5.41212L90.0976 3.77032C89.1816 2.94617 87.9993 2.49191 86.765 2.49191C85.5307 2.49191 84.3809 2.93319 83.4714 3.73787C83.1466 4.0234 82.7178 4.37382 82.341 4.67882L80.1777 4.83457C78.2548 4.97085 76.6112 6.17138 75.9031 7.96244C75.1885 9.7535 75.5588 11.7522 76.8711 13.1669L77.2674 13.5952L77.2089 13.8872C76.8971 15.3603 77.2609 16.8788 78.2093 18.0469C78.3393 18.2091 78.4822 18.3584 78.6316 18.5011C77.8585 19.176 77.2154 19.9612 76.7477 20.8503C74.9547 24.2377 75.195 34.3287 75.312 37.3397C75.4094 39.8771 75.6498 43.5825 76.241 46.8142C77.001 50.9674 78.1249 53.323 79.9958 54.6858C81.8278 56.0161 84.199 56.2951 85.862 56.2951C86.1998 56.2951 86.5311 56.2822 86.856 56.2562C90.1106 56.0161 92.4168 54.4911 93.898 51.6098C94.1383 51.1426 94.3592 50.565 94.5606 49.9096C95.574 51.48 96.9448 52.8817 98.6078 54.0044C98.6338 54.0174 98.6533 54.0368 98.6793 54.0498C100.622 55.3088 103.097 56.0096 105.65 56.0096C106.657 56.0096 107.644 55.9058 108.599 55.6916C108.625 55.6916 108.651 55.6786 108.677 55.6722C109.567 55.458 110.457 55.1725 111.354 54.8091C112.835 55.8019 114.667 56.2886 116.927 56.2886C117.298 56.2886 117.681 56.2757 118.11 56.2497C118.188 56.2497 118.266 56.2367 118.344 56.2302C119.929 56.055 121.241 55.6657 122.352 55.0427C122.391 55.0232 122.43 54.9973 122.462 54.9778C123.521 54.3418 124.333 53.5242 124.911 52.5573C125.704 53.1608 126.562 53.6864 127.478 54.1082C127.503 54.1212 127.536 54.1342 127.562 54.1472C129.602 55.0362 131.94 55.5164 134.507 55.5813C134.546 55.5813 134.578 55.5813 134.617 55.5813C136.956 55.5813 138.937 55.2374 140.678 54.53C142.25 53.8811 143.692 52.9596 144.94 51.8499C145.583 52.9012 146.44 53.7448 147.467 54.3094C148.669 54.9778 150.098 55.3996 151.689 55.5618C151.709 55.5618 151.728 55.5618 151.748 55.5618C152.274 55.6073 152.748 55.6267 153.203 55.6267C154.268 55.6267 155.236 55.5099 156.159 55.2633C157.822 54.835 159.284 53.9135 160.297 52.6546C161.33 51.4216 162.019 49.8837 162.285 48.1834C162.642 46.1068 162.584 44.1146 162.532 42.3495C162.532 42.2781 162.532 42.2067 162.532 42.1354C162.934 42.1224 163.357 42.1224 163.799 42.1224C164.026 42.1224 164.253 42.1159 164.481 42.0964C164.864 45.3736 165.819 48.1186 167.346 50.2795C167.352 50.2925 167.365 50.3055 167.371 50.3184C169.327 53.031 172.627 54.9778 176.194 55.5294C177.519 55.7241 178.773 55.8214 179.955 55.8214C180.936 55.8214 181.884 55.7565 182.787 55.6267C184.97 55.3412 187.27 54.874 189.342 53.4658C189.985 53.044 190.589 52.5443 191.155 51.9927C191.408 52.2523 191.674 52.5054 191.954 52.7455C192.798 53.4593 193.766 54.0888 194.825 54.6079C195.767 55.0686 196.741 55.458 197.722 55.7565C198.684 56.055 199.658 56.2757 200.607 56.4249C201.536 56.5677 202.367 56.6326 203.16 56.6326H203.342C204.862 56.6131 206.388 56.3406 207.889 55.8409C209.442 55.3217 210.864 54.5495 212.118 53.5566C213.43 52.5118 214.509 51.2399 215.327 49.7733C216.237 48.1315 216.685 46.3015 216.659 44.3353C216.64 42.7389 216.25 41.2658 215.509 39.9614C215.36 39.7019 215.197 39.4553 215.029 39.2022C216.718 39.8771 218.621 39.5266 219.953 38.2612C221.362 36.9244 221.798 34.8932 221.051 33.1022L220.544 31.8822L221.479 30.779C222.714 29.3189 222.935 27.2877 222.051 25.6005L222.038 25.6265Z" fill="#612FF1"/>
</g>
<g id="Group_2">
<path id="Vector_3" d="M37.8477 25.8406C36.7498 23.0567 33.8329 19.8509 30.5393 21.2851C26.1867 23.18 23.8675 33.9847 22.0486 33.7706C20.483 33.6019 17.1893 24.0236 14.7012 22.0443C11.4076 19.3902 7.52278 22.6349 6.17154 25.7562C4.06023 30.6881 3.67695 46.639 6.97059 50.9414C9.12088 53.8097 14.3634 52.5443 15.3314 49.2088C15.6302 48.1964 15.078 44.9452 14.8636 43.7707C14.3569 40.9413 13.5124 38.073 13.259 35.2502C15.0325 38.7933 19.4241 46.1328 24.2378 43.4332C26.7714 41.9991 28.9282 37.5669 30.2794 34.9971C30.0261 38.9166 28.8827 42.7194 28.6294 46.639C28.2071 53.8941 35.7688 54.0628 37.7112 49.676C39.9914 44.5689 39.907 31.0321 37.8347 25.8406H37.8477Z" fill="white"/>
<path id="Vector_4" d="M88.2721 20.8438C85.9075 20.0845 82.0227 20.5907 80.7559 22.9983C79.1903 25.9509 79.2357 48.5598 82.6593 51.0517C83.5883 51.7266 85.3618 51.8564 86.5051 51.7656C88.1942 51.6423 89.0842 51.0517 89.8443 49.5722C91.9166 45.5682 92.2934 27.6771 90.9811 23.3357C90.6043 21.9859 89.5454 21.2721 88.2786 20.8503L88.2721 20.8438Z" fill="white"/>
<path id="Vector_5" d="M93.2808 9.79892L90.2925 9.03318C90.1236 8.98776 89.9677 8.90339 89.8378 8.78659L87.4991 6.68404C87.0898 6.31414 86.4727 6.30765 86.0634 6.67106C85.4333 7.22914 84.5173 7.94946 84.0755 8.29339C83.9066 8.42318 83.7052 8.50105 83.4909 8.51403L80.4636 8.72818C79.5541 8.79308 79.1253 9.8768 79.7425 10.5452L81.1197 12.0378C81.3601 12.2973 81.4575 12.6542 81.386 12.9982L81.0222 14.7049C80.8339 15.5939 81.7563 16.3013 82.5684 15.8989L85.6022 14.3934C85.953 14.2182 86.3687 14.2506 86.687 14.4648L89.5129 16.3597C90.1821 16.8074 91.0851 16.3986 91.1955 15.6069L91.4748 13.5757C91.5203 13.2642 91.6957 12.9852 91.9621 12.8165L93.6121 11.7457C94.4047 11.2331 94.2098 10.0196 93.2938 9.78595L93.2808 9.79892Z" fill="white"/>
<path id="Vector_6" d="M121.202 21.1293C120.527 20.3701 119.552 19.8639 118.584 19.5654C117.272 19.1436 115.836 19.0203 114.53 19.3123C113.855 19.4356 113.134 19.7341 112.588 20.1105C111.49 20.9152 110.814 22.265 110.438 23.5693C109.762 25.8925 109.639 28.339 109.509 30.7401C106.339 28.7608 101.525 29.6434 99.1601 32.5506C98.2766 33.6862 97.6009 34.9971 97.2177 36.3923C96.7499 38.125 96.581 39.9809 96.7109 41.7914C96.7954 43.4787 97.1332 45.2503 97.9388 46.7298C98.6533 48.164 99.8357 49.3905 101.148 50.273C102.967 51.4541 105.5 51.7461 107.612 51.2854C109.385 50.8636 111.035 50.0654 112.549 49.1309C112.763 49.7668 113.101 50.4417 113.601 50.8635C114.699 51.7915 116.388 51.837 117.824 51.7526C118.584 51.6682 119.429 51.4995 120.104 51.1231C120.527 50.87 120.91 50.5326 121.118 50.0719C121.494 49.3515 121.494 48.4236 121.41 47.5864C121.287 46.321 121.072 45.0945 120.949 43.8291C120.734 42.0964 120.65 40.3313 120.695 38.5597V37.2943C120.572 35.7304 121.748 28.0989 121.962 26.535C122.047 25.5616 122.177 24.5947 122.086 23.6213C122.047 22.7322 121.793 21.8107 121.202 21.1358V21.1293ZM111.36 41.123C109.418 45.8083 102.447 43.8226 103.506 38.8907C104.058 36.3988 106.969 34.9646 109.333 35.977C109.372 35.977 109.587 36.1911 109.632 36.2301C110.223 36.6908 110.814 37.2035 111.152 37.8329C111.704 38.7998 111.789 40.0653 111.367 41.123H111.36Z" fill="white"/>
<path id="Vector_7" d="M144.102 34.121C142.88 31.5512 140.34 29.3513 137.599 28.5921C135.949 28.1703 134.221 28.1313 132.571 28.339C130.713 28.5921 128.855 29.3903 127.419 30.6168C125.983 31.8432 124.886 33.6148 124.379 35.4254C123.58 38.4624 123.404 41.9212 124.548 44.8739C125.392 47.1516 127.166 49.0076 129.362 50.0199C131.012 50.7402 132.824 51.0323 134.598 51.0712C136.079 51.0712 137.599 50.9025 138.95 50.3574C140.892 49.5527 142.711 48.0796 143.764 46.2626C144.946 44.2379 145.329 41.7071 145.245 39.2995C145.206 37.5279 144.907 35.7109 144.102 34.108V34.121ZM139.418 40.9154C137.053 44.8804 131.141 42.7713 132.025 38.2158C132.194 37.4111 132.701 36.6519 133.292 36.0224C133.506 35.8147 134.013 35.3475 134.266 35.3929C134.435 35.4383 135.156 35.2242 135.319 35.1788C136.04 35.0944 136.8 35.1788 137.514 35.4319C139.626 36.1911 140.555 38.9296 139.418 40.9154Z" fill="white"/>
<path id="Vector_8" d="M165.682 29.2735C165.26 28.8517 164.708 28.5986 164.117 28.5142C163.142 28.3455 162.09 28.5596 161.116 28.8517C159.381 29.4422 157.822 30.6233 156.555 31.9341C156.516 31.0905 156.432 30.2014 156.094 29.4487C155.841 28.8581 155.334 28.3066 154.743 28.0535C154.028 27.716 153.177 27.716 152.378 27.755C151.533 27.755 150.689 27.8847 149.89 28.0924C149.299 28.2611 148.708 28.5986 148.285 29.1047C147.947 29.5266 147.733 30.1171 147.694 30.7076C147.525 31.6356 148.032 36.3598 148.071 37.2878C148.116 38.4689 148.116 45.724 148.201 46.905C148.24 47.6643 148.324 48.469 148.623 49.1828C148.837 49.6435 149.175 50.1108 149.637 50.3639C150.397 50.7857 151.287 50.9933 152.125 51.0777C153.099 51.1621 154.067 51.162 154.996 50.909C155.672 50.7402 156.347 50.3639 156.77 49.8123C157.322 49.1828 157.66 48.3392 157.783 47.4891C158.121 45.5488 157.997 43.5695 157.952 41.6227C157.952 41.2463 158.329 39.8511 158.459 39.5137C158.881 38.5403 159.81 37.8654 160.869 37.7421C161.843 37.6188 162.811 37.6188 163.786 37.6188C164.461 37.6188 165.182 37.4501 165.689 37.0282C166.404 36.4377 166.787 35.4643 166.871 34.5428C166.995 33.4007 166.995 32.2651 166.702 31.1684C166.533 30.4935 166.196 29.7731 165.689 29.267L165.682 29.2735Z" fill="white"/>
<path id="Vector_9" d="M190.674 30.5778C190.336 30.0717 189.914 29.6498 189.407 29.3513C187.926 28.4234 185.139 28.3844 183.833 29.5655C183.242 30.0717 182.904 30.8763 182.781 31.6745C182.404 34.3352 183.08 37.0737 182.904 39.7732C182.865 40.4481 182.651 41.2074 182.105 41.6292C181.644 42.0899 180.838 42.1808 180.202 42.1354C179.779 42.1354 179.318 41.9212 179.065 41.5903C178.558 40.831 178.604 39.7732 178.604 38.8453C178.643 36.3988 179.448 33.9912 179.24 31.5902C179.156 30.5778 178.565 29.5655 177.72 29.0204C176.921 28.5596 175.947 28.3455 175.018 28.3455C173.965 28.3001 172.906 28.3001 171.932 28.6829C171.087 28.975 170.412 29.7342 170.028 30.5389C169.437 31.72 169.184 33.0243 169.015 34.2962C168.762 36.1976 168.762 38.1769 168.846 40.0782C168.97 42.7389 169.522 45.5617 171.042 47.7162C172.354 49.5267 174.673 50.7532 176.869 51.0907C178.604 51.3438 180.416 51.4281 182.151 51.175C183.755 50.9609 185.444 50.6689 186.796 49.7409C188.147 48.8518 189.245 47.5021 189.92 46.0679C191.103 43.6214 191.57 40.8375 191.733 38.1379C191.817 36.6194 191.817 35.1009 191.609 33.5824C191.486 32.5701 191.233 31.4734 190.68 30.5843L190.674 30.5778Z" fill="white"/>
<path id="Vector_10" d="M66.6848 33.3683C66.1781 32.317 65.2881 31.5577 64.1903 31.1749C62.0789 30.5454 58.4475 30.9607 57.1352 32.7388C56.674 33.4591 56.5895 34.3871 56.6285 35.2242C56.6675 36.8271 56.6285 38.4754 56.4141 40.0782C56.2452 41.3437 56.0374 42.648 55.4852 43.7902C55.1928 44.3807 54.7706 45.0166 54.1729 45.3541C53.6272 45.6526 52.7762 45.8148 52.315 45.3995C51.425 44.6792 51.386 41.9407 51.425 40.7596C51.4639 38.6506 51.7628 36.5805 51.6393 34.4714C51.6004 33.5824 51.4704 32.6998 51.0027 31.9406C50.496 31.1813 49.606 30.6752 48.677 30.6752C47.4102 30.6752 46.1045 30.6752 44.8312 30.9737C44.1945 31.1424 43.5189 31.3955 43.0577 31.9017C42.59 32.3624 42.3821 33.0373 42.2521 33.6733C42.1287 34.4779 42.0832 35.2761 42.0832 36.0808C41.9988 38.6571 41.8689 41.3112 42.2911 43.8421C42.7134 46.4118 44.279 49.0335 46.4293 50.4223C50.3531 52.9531 55.5112 51.2659 58.0837 47.3398C58.2071 49.1958 58.2981 51.1361 57.8758 52.9466C57.6225 54.0888 57.2002 55.3542 56.3102 56.1524C55.2123 57.1647 53.3934 57.4178 51.9577 57.0414C50.7299 56.704 49.7164 55.9058 48.5341 55.4775C48.3652 55.4256 48.1898 55.3866 48.0144 55.3542L46.6047 53.0699C46.2539 52.4989 45.5003 52.4145 45.0261 52.8882L42.6354 55.2568C42.46 55.432 42.2392 55.5359 41.9988 55.5553L39.1209 55.8149C38.3154 55.8863 37.8736 56.8662 38.3284 57.567L39.764 59.7799C39.933 60.0395 39.9849 60.3704 39.9135 60.6884L39.1469 63.8163C38.926 64.7118 39.764 65.4711 40.5631 65.0947L43.7398 63.6086C44.0256 63.4724 44.357 63.4788 44.6298 63.6281L44.7467 63.693C45.4224 64.3549 46.2669 64.8805 47.1114 65.2634C48.6705 65.9383 50.4505 66.2368 52.1331 66.3991C54.92 66.6132 57.8758 66.3147 60.4094 65.1791C61.4228 64.7118 62.4362 64.0824 63.2353 63.3231C65.4311 61.2141 66.9512 58.216 67.5034 55.2244C68.4778 50.0783 67.8802 44.7636 67.6723 39.5721C67.5489 37.463 67.5489 35.2696 66.6589 33.3683H66.6848Z" fill="white"/>
<path id="Vector_11" d="M218.744 28.5012C219.381 27.755 218.777 26.6128 217.802 26.7102L215.029 26.9827C214.619 27.0217 214.217 26.827 213.996 26.483L212.54 24.1858C212.066 23.4395 210.955 23.5304 210.611 24.348L209.643 26.6453C209.5 26.9892 209.188 27.2358 208.825 27.2942L208.441 27.3591C207.798 27.0995 207.11 26.9048 206.388 26.7816C205.395 26.6128 204.453 26.535 203.55 26.5479C202.575 26.5609 201.549 26.7167 200.477 27.0087C199.405 27.3007 198.417 27.7355 197.508 28.313C196.598 28.8841 195.851 29.5979 195.267 30.448C194.682 31.2981 194.396 32.2975 194.409 33.4396C194.422 34.2962 194.715 35.0814 195.286 35.8082C195.858 36.535 196.566 37.2099 197.404 37.8459C198.242 38.4819 199.152 39.0724 200.139 39.6175C201.12 40.1626 202.036 40.7077 202.874 41.2463C203.712 41.7849 204.414 42.3171 204.985 42.8427C205.557 43.3748 205.843 43.9264 205.849 44.517C205.849 44.783 205.765 44.9842 205.583 45.1075C205.401 45.2308 205.174 45.2957 204.907 45.3022C204.173 45.3151 203.55 45.101 203.03 44.6662C202.51 44.2314 201.997 43.7577 201.49 43.2385C200.983 42.7194 200.418 42.2457 199.801 41.8174C199.184 41.3891 198.411 41.1749 197.482 41.1879C196.943 41.1944 196.404 41.3307 195.858 41.5967C195.312 41.8628 194.825 42.2067 194.39 42.6415C193.954 43.0763 193.61 43.5565 193.35 44.0822C193.09 44.6078 192.961 45.1399 192.967 45.6785C192.98 46.4118 193.155 47.0802 193.506 47.6838C193.857 48.2873 194.318 48.8324 194.883 49.3126C195.449 49.7928 196.098 50.2081 196.826 50.565C197.553 50.9219 198.294 51.214 199.054 51.4476C199.814 51.6812 200.561 51.8499 201.295 51.9667C202.029 52.077 202.692 52.129 203.277 52.1225C204.329 52.1095 205.382 51.9213 206.434 51.5644C207.493 51.2075 208.441 50.6948 209.286 50.0264C210.13 49.358 210.819 48.5468 211.339 47.5994C211.865 46.6519 212.118 45.5942 212.099 44.4261C212.086 43.5955 211.897 42.8622 211.54 42.2197C211.176 41.5773 210.728 40.9997 210.195 40.4806C209.663 39.9614 209.091 39.4877 208.474 39.0594C207.857 38.6311 207.285 38.2223 206.752 37.8394C206.22 37.4565 205.778 37.0737 205.42 36.6843C205.063 36.3014 204.492 35.7693 204.414 35.2437C204.329 34.6986 204.764 34.4065 205.206 34.2638C205.55 34.1535 205.869 34.147 206.135 34.1405C206.72 34.134 207.291 34.1989 207.844 34.3352C208.097 34.4001 208.389 34.5493 208.682 34.6856L208.734 36.1327C208.773 37.0931 209.935 37.5409 210.605 36.853L212.501 34.9192C212.826 34.5882 213.333 34.4974 213.755 34.6986L216.256 35.8861C217.159 36.3144 218.121 35.4059 217.738 34.4844L216.653 31.8692C216.497 31.4928 216.562 31.058 216.828 30.7465L218.738 28.4947L218.744 28.5012Z" fill="white"/>
</g>
<path id="Vector_12" d="M210.54 0.519148L207.441 3.78978C207.239 4.00393 206.986 4.15319 206.707 4.23755L201.412 5.80148C200.282 6.13893 199.853 7.50818 200.594 8.42318L203.465 11.9858C203.705 12.2843 203.835 12.6542 203.829 13.0306L203.803 17.6316C203.796 18.9749 205.304 19.7666 206.408 18.9943L210.923 15.8405C211.43 15.4836 212.092 15.4447 212.638 15.7302L217.153 18.0988C218.257 18.6764 219.576 17.8782 219.576 16.6322V12.492C219.576 12.0507 219.751 11.6224 220.07 11.3174L223.487 7.94946C224.455 6.99552 223.922 5.34723 222.584 5.13957L217.114 4.28297C216.763 4.23106 216.445 4.06233 216.198 3.81574L212.904 0.493191C212.248 -0.168723 211.17 -0.155744 210.527 0.519148H210.54Z" fill="#612FF1"/>
<g id="Group_3">
<path id="Vector_13" d="M208.155 6.47638C208.285 6.47638 208.409 6.51532 208.526 6.59968C208.643 6.67755 208.753 6.78787 208.857 6.91766C208.961 7.04744 209.058 7.1967 209.149 7.35893C209.24 7.52117 209.325 7.6834 209.416 7.83914C209.5 7.99489 209.585 8.15063 209.656 8.2934C209.734 8.43616 209.805 8.55297 209.877 8.63733C209.896 8.66329 209.929 8.69574 209.961 8.74765C209.994 8.79308 210.039 8.8385 210.078 8.88393C210.124 8.92935 210.169 8.96829 210.215 9.00074C210.26 9.03318 210.306 9.05265 210.351 9.05265C210.39 9.05265 210.41 9.03967 210.429 9.01372C210.449 8.98776 210.449 8.9618 210.449 8.93584C210.449 8.70223 210.423 8.46212 210.371 8.22851C210.319 7.99489 210.293 7.75478 210.293 7.50819C210.293 7.38489 210.312 7.23563 210.351 7.06691C210.39 6.89819 210.455 6.73595 210.54 6.58021C210.624 6.42447 210.734 6.29468 210.864 6.18436C210.994 6.07404 211.15 6.02213 211.332 6.02213C211.514 6.02213 211.676 6.08702 211.806 6.21032C211.936 6.33361 212.047 6.49585 212.131 6.69702C212.216 6.89819 212.287 7.11234 212.339 7.35244C212.391 7.59255 212.43 7.82617 212.456 8.05329C212.482 8.28042 212.501 8.49457 212.508 8.68276C212.514 8.87095 212.521 9.01372 212.521 9.11755C212.521 9.23435 212.521 9.41606 212.521 9.66914C212.521 9.91574 212.501 10.1948 212.475 10.4998C212.45 10.8048 212.404 11.1163 212.352 11.4342C212.3 11.7522 212.222 12.0378 212.118 12.3038C212.014 12.5699 211.891 12.7775 211.735 12.9463C211.579 13.115 211.391 13.1993 211.17 13.1993C210.832 13.1993 210.54 13.102 210.293 12.9073C210.046 12.7126 209.838 12.4725 209.663 12.1805C209.487 11.8885 209.338 11.577 209.214 11.2331C209.091 10.8891 208.98 10.5777 208.877 10.2856C208.773 9.99361 208.675 9.7535 208.578 9.55882C208.487 9.36414 208.376 9.2668 208.266 9.2668C208.201 9.2668 208.149 9.29925 208.116 9.37712C208.084 9.45499 208.051 9.53287 208.038 9.63021C208.019 9.72755 208.013 9.8184 208.013 9.90925V10.0974C208.013 10.3051 208.013 10.4803 208.026 10.6296C208.032 10.7788 208.038 10.9216 208.051 11.0514C208.064 11.1877 208.071 11.3239 208.077 11.4732C208.084 11.6224 208.09 11.7976 208.09 12.0053C208.09 12.0962 208.09 12.2259 208.09 12.3817C208.09 12.5374 208.064 12.6932 208.026 12.8424C207.987 12.9982 207.922 13.128 207.844 13.2383C207.759 13.3486 207.642 13.407 207.48 13.407C207.298 13.407 207.129 13.3486 206.973 13.2253C206.817 13.102 206.674 12.9463 206.544 12.7516C206.414 12.5569 206.304 12.3428 206.207 12.0962C206.109 11.8561 206.025 11.6095 205.96 11.3758C205.888 11.1357 205.843 10.9086 205.81 10.688C205.778 10.4673 205.765 10.2856 205.765 10.1429C205.765 9.92223 205.778 9.67563 205.804 9.40957C205.83 9.1435 205.875 8.87744 205.94 8.60489C206.005 8.33233 206.096 8.07276 206.207 7.81968C206.317 7.56659 206.466 7.33946 206.642 7.14478C206.817 6.9501 207.038 6.79436 207.291 6.67106C207.545 6.55425 207.844 6.49585 208.188 6.49585L208.155 6.47638Z" fill="white"/>
<path id="Vector_14" d="M215.451 6.51531C215.899 6.51531 216.295 6.55425 216.646 6.62563C216.997 6.7035 217.289 6.82031 217.536 6.99552C217.776 7.16424 217.958 7.39786 218.088 7.68339C218.212 7.96892 218.277 8.32584 218.277 8.75414C218.277 9.12403 218.244 9.46147 218.173 9.7535C218.101 10.0455 217.984 10.2921 217.809 10.4933C217.634 10.6945 217.4 10.8502 217.101 10.9475C216.802 11.0449 216.419 11.1033 215.964 11.1033C215.893 11.1033 215.821 11.1033 215.743 11.1098C215.665 11.1098 215.62 11.1422 215.6 11.1876C215.646 11.3693 215.691 11.5446 215.743 11.7133C215.795 11.882 215.821 12.0572 215.821 12.2389C215.821 12.3557 215.802 12.479 215.756 12.5958C215.711 12.7126 215.646 12.8294 215.561 12.9268C215.477 13.0241 215.373 13.1085 215.249 13.1669C215.126 13.2253 214.99 13.2577 214.84 13.2577C214.58 13.2577 214.359 13.1799 214.178 13.0241C213.996 12.8684 213.84 12.6672 213.723 12.4206C213.606 12.174 213.508 11.9015 213.437 11.5965C213.365 11.2915 213.313 10.993 213.281 10.6945C213.249 10.3959 213.229 10.1169 213.216 9.85733C213.203 9.59775 213.203 9.39009 213.203 9.23435C213.203 8.80605 213.216 8.42318 213.242 8.08573C213.268 7.74829 213.352 7.46275 213.489 7.23563C213.632 7.00201 213.853 6.8268 214.158 6.69701C214.463 6.57371 214.899 6.50882 215.457 6.50882L215.451 6.51531ZM215.958 9.88977C216.042 9.88977 216.113 9.84435 216.159 9.75998C216.204 9.67562 216.243 9.57179 216.269 9.45499C216.295 9.33818 216.315 9.22786 216.321 9.11754C216.328 9.00722 216.334 8.92286 216.334 8.87743C216.334 8.83201 216.334 8.76062 216.334 8.6568C216.334 8.55297 216.315 8.44265 216.289 8.33233C216.263 8.22201 216.224 8.11818 216.178 8.03382C216.126 7.94946 216.055 7.90403 215.964 7.90403C215.925 7.90403 215.893 7.93648 215.854 7.99488C215.815 8.05329 215.782 8.12467 215.75 8.20254C215.717 8.28041 215.691 8.35829 215.672 8.43616C215.652 8.51403 215.639 8.56594 215.639 8.5919C215.639 8.64382 215.639 8.74116 215.639 8.88392C215.639 9.02669 215.652 9.17594 215.678 9.3252C215.698 9.47445 215.73 9.61073 215.776 9.72754C215.821 9.84435 215.88 9.90275 215.958 9.90275V9.88977Z" fill="white"/>
</g>
</g>
<defs>
<clipPath id="clip0_161_7005">
<rect width="224" height="71" fill="white"/>
</clipPath>
</defs>
</svg>
