<svg width="198" height="71" viewBox="0 0 198 71" fill="none" xmlns="http://www.w3.org/2000/svg">
<g clip-path="url(#clip0_184_5678)">
<path d="M71.4283 39.695C71.4283 39.695 71.4283 39.6372 71.4283 39.6115C71.4154 39.361 71.4026 39.1041 71.3897 38.8472C71.2806 36.8111 71.1521 34.2741 70.0152 31.8398C70.0088 31.827 70.0024 31.8077 69.996 31.7948C68.9812 29.6881 67.1892 28.0953 64.9476 27.3245C64.8898 27.3053 64.8256 27.286 64.7678 27.2667C63.753 26.9649 62.584 26.8043 61.3893 26.8043C58.3642 26.8043 55.6602 27.7484 53.8617 29.3734C52.4937 27.6328 50.3549 26.5731 48.1583 26.5731C46.7195 26.5731 45.0945 26.5731 43.3347 26.9841C43.2897 26.997 43.2383 27.0098 43.1934 27.0162C43.02 27.0612 42.7374 27.1447 42.3969 27.2603C42.1657 26.2648 41.9024 25.372 41.6005 24.6269C39.5067 19.3216 35.1841 16.9323 31.8249 16.9323C30.656 16.9323 29.5063 17.1764 28.4015 17.6581C25.2864 19.0198 23.2697 22.1862 21.7025 25.3399C20.1803 22.3725 18.9278 20.2787 17.3414 19.0133C15.7678 17.7416 13.8923 17.0608 11.9397 17.0608C8.67049 17.0608 4.16165 19.3602 1.97787 24.415C0.449232 28.0054 -0.0453281 34.2741 -0.000368096 38.9499C0.0510148 43.8249 0.667609 50.3633 3.30741 53.8445C4.91954 55.9833 7.45657 57.2037 10.2826 57.2037C14.5795 57.2037 18.3626 54.5189 19.4802 50.6781C19.6215 50.1899 19.7564 49.5798 19.7499 48.5136C20.4308 48.687 21.1373 48.7769 21.8695 48.7769C22.5375 48.7769 23.199 48.6998 23.8477 48.5457C24.0982 51.5002 25.3121 53.4142 26.3912 54.5575C28.0483 56.3173 30.322 57.2808 32.8012 57.2808C33.3985 57.2808 33.9766 57.2165 34.5482 57.1138C34.5482 57.9295 34.7794 58.7452 35.229 59.4453L36.1603 60.8776L35.6144 63.1127C35.2098 64.757 35.7621 66.4398 37.0595 67.4995C38.3184 68.5336 40.0205 68.7456 41.4977 68.0519L42.0565 67.7886C42.9814 68.5079 43.9384 69.041 44.7541 69.4071C44.7734 69.42 44.7991 69.4264 44.8184 69.4392C47.0921 70.4219 49.507 70.7495 51.1256 70.9165C51.1641 70.9165 51.1963 70.9229 51.2348 70.9229C51.8964 70.9743 52.5579 71 53.2066 71C56.3153 71 59.1413 70.4412 61.6013 69.3301C61.6141 69.3301 61.6206 69.3236 61.6334 69.3172C63.1621 68.6171 64.5558 67.6922 65.6477 66.6581C65.6541 66.6517 65.6605 66.6453 65.6734 66.6325C68.4609 63.9541 70.4713 60.1454 71.1971 56.1825C72.0706 51.5644 71.8201 47.0235 71.5824 42.6366C71.531 41.6539 71.4732 40.6777 71.4347 39.7014L71.4283 39.695Z" fill="#612FF1"/>
<path d="M196.038 24.8325C195.158 23.1625 193.379 22.2055 191.497 22.3853L190.258 22.5074L189.628 21.5118C188.71 20.0603 187.065 19.2381 185.351 19.3794C183.636 19.5207 182.152 20.5934 181.478 22.1798L181.034 23.2203L180.289 23.3488C179.075 23.5607 178.035 24.248 177.341 25.2178C176.07 24.6077 174.631 24.2801 173.128 24.2672C172.832 24.2544 172.537 24.248 172.248 24.248C171.31 24.248 169.904 24.3122 168.413 24.8838C167.701 25.1407 167.033 25.5261 166.422 26.0014C165.433 25.205 164.258 24.6847 162.967 24.4856C162.504 24.4085 162.029 24.37 161.541 24.37C160.449 24.37 159.287 24.5627 157.989 24.9609C157.938 24.9738 157.893 24.993 157.848 25.0059C157.43 25.1472 157.013 25.3142 156.602 25.5004C156.075 25.0316 155.478 24.6462 154.842 24.3636C153.801 23.8883 152.639 23.6571 151.284 23.6571C151.052 23.6571 150.815 23.6571 150.532 23.6763C149.395 23.6892 148.22 23.8498 147.045 24.1581C147.013 24.1645 146.987 24.1709 146.955 24.1837C145.458 24.6077 144.109 25.4812 143.146 26.6309C143.127 26.6565 143.107 26.6758 143.088 26.7015C142.889 26.952 142.709 27.2153 142.549 27.4915C140.975 26.1877 139.151 25.205 137.243 24.6719C137.218 24.6655 137.186 24.659 137.16 24.6526C135.83 24.3122 134.417 24.1388 132.959 24.1388C132.15 24.1388 131.328 24.1902 130.499 24.2994C130.486 24.2994 130.474 24.2994 130.467 24.2994C128.605 24.5563 126.787 25.1857 125.168 26.117C125.226 25.4041 125.258 24.6269 125.194 23.7727C125.078 21.7752 124.398 20.0025 123.216 18.6537C123.209 18.6472 123.203 18.6344 123.19 18.628C122.047 17.337 120.454 16.3543 118.585 15.7826C117.307 15.3716 116.003 15.166 114.712 15.166C113.896 15.166 113.093 15.2495 112.323 15.4165C111.057 15.667 109.792 16.1937 108.752 16.9131C108.719 16.9323 108.687 16.958 108.655 16.9773C106.902 18.2554 105.591 20.2658 104.859 22.7771C104.589 23.7149 104.39 24.6526 104.243 25.5775C100.729 25.6096 97.3831 27.0419 95.1029 29.4505C94.9681 26.4767 94.6854 23.9718 94.2615 22.5266C93.9918 21.5825 93.4908 20.4842 92.5723 19.4758C93.311 18.7372 93.8184 17.7673 93.9661 16.6754L94.0689 15.9239L94.6341 15.5578C96.2719 14.4916 97.1326 12.5584 96.8178 10.6315C96.5031 8.70464 95.0772 7.13747 93.1825 6.65575L90.8895 6.06485L89.0847 4.43986C88.1791 3.62416 87.0101 3.17456 85.7898 3.17456C84.5694 3.17456 83.4326 3.61132 82.5334 4.40775C82.2123 4.69036 81.7883 5.03719 81.4158 5.33907L79.277 5.49321C77.3758 5.62809 75.7508 6.81632 75.0508 8.58903C74.3442 10.3617 74.7103 12.34 76.0078 13.7402L76.3996 14.1641L76.3418 14.4531C76.0335 15.9111 76.3931 17.414 77.3309 18.5702C77.4593 18.7307 77.6006 18.8785 77.7484 19.0198C76.984 19.6877 76.3482 20.4649 75.8857 21.3448C74.113 24.6976 74.3507 34.6851 74.4663 37.6653C74.5626 40.1767 74.8003 43.8441 75.3847 47.0427C76.1362 51.1533 77.2474 53.4848 79.0972 54.8336C80.9084 56.1503 83.2527 56.4265 84.897 56.4265C85.231 56.4265 85.5586 56.4137 85.8797 56.388C89.0976 56.1503 91.3777 54.641 92.8421 51.7892C93.0797 51.3268 93.2981 50.7551 93.4972 50.1064C94.4992 51.6607 95.8544 53.0481 97.4987 54.1592C97.5244 54.1721 97.5436 54.1914 97.5693 54.2042C99.4898 55.4502 101.937 56.1439 104.461 56.1439C105.457 56.1439 106.433 56.0411 107.377 55.8292C107.403 55.8292 107.428 55.8163 107.454 55.8099C108.334 55.598 109.214 55.3154 110.1 54.9557C111.565 55.9384 113.376 56.4201 115.611 56.4201C115.977 56.4201 116.356 56.4072 116.78 56.3816C116.857 56.3816 116.934 56.3687 117.011 56.3623C118.578 56.1889 119.876 55.8035 120.974 55.1869C121.013 55.1676 121.051 55.1419 121.083 55.1227C122.13 54.4932 122.933 53.684 123.505 52.7269C124.288 53.3243 125.136 53.8445 126.042 54.262C126.068 54.2749 126.1 54.2877 126.125 54.3005C128.142 55.1805 130.454 55.6558 132.991 55.72C133.03 55.72 133.062 55.72 133.101 55.72C135.413 55.72 137.372 55.3796 139.093 54.6795C140.647 54.0372 142.073 53.1252 143.307 52.0269C143.942 53.0674 144.79 53.9023 145.805 54.4611C146.993 55.1227 148.406 55.5402 149.98 55.7007C149.999 55.7007 150.018 55.7007 150.038 55.7007C150.558 55.7457 151.027 55.765 151.476 55.765C152.53 55.765 153.487 55.6493 154.399 55.4053C156.043 54.9814 157.488 54.0693 158.49 52.8233C159.511 51.6029 160.192 50.0807 160.456 48.3979C160.809 46.3426 160.751 44.3708 160.7 42.6238C160.7 42.5531 160.7 42.4825 160.7 42.4118C161.098 42.399 161.515 42.399 161.952 42.399C162.177 42.399 162.402 42.3926 162.626 42.3733C163.005 45.6168 163.95 48.3337 165.459 50.4725C165.465 50.4854 165.478 50.4982 165.485 50.5111C167.418 53.1958 170.681 55.1227 174.207 55.6686C175.517 55.8613 176.757 55.9576 177.926 55.9576C178.896 55.9576 179.833 55.8934 180.726 55.765C182.884 55.4824 185.158 55.0199 187.207 53.6261C189.153 52.3352 190.804 50.4083 191.851 48.1988C193.109 45.5783 193.842 42.4696 194.073 38.693C194.105 38.1599 194.118 37.6589 194.131 37.1708C195.409 35.8477 195.788 33.9272 195.075 32.2187L194.574 31.0112L195.499 29.9194C196.719 28.4742 196.937 26.4639 196.064 24.7939L196.038 24.8325Z" fill="#612FF1"/>
<path d="M37.4192 26.2904C36.3338 23.535 33.4499 20.3621 30.1935 21.7816C25.8902 23.6571 23.5972 34.3511 21.7988 34.1392C20.2509 33.9722 16.9945 24.492 14.5346 22.5331C11.2782 19.9061 7.4373 23.1176 6.10135 26.2069C4.01392 31.0883 3.63497 46.8757 6.89136 51.1341C9.01733 53.973 14.2006 52.7205 15.1576 49.4192C15.453 48.4172 14.9071 45.1994 14.6951 44.0368C14.1942 41.2364 13.3592 38.3975 13.1087 35.6036C14.8621 39.1105 19.204 46.3747 23.9633 43.7028C26.4682 42.2834 28.6006 37.8966 29.9366 35.3531C29.6861 39.2325 28.5557 42.9963 28.3052 46.8757C27.8877 54.0565 35.3639 54.2235 37.2843 49.8816C39.5388 44.8268 39.4553 31.4287 37.4064 26.2904H37.4192Z" fill="white"/>
<path d="M87.2735 21.3448C84.9356 20.5934 81.0947 21.0944 79.8422 23.4772C78.2943 26.3996 78.3393 48.7769 81.7241 51.2433C82.6426 51.9112 84.396 52.0397 85.5265 51.9498C87.1964 51.8278 88.0763 51.2433 88.8278 49.7789C90.8767 45.816 91.2492 28.1081 89.9518 23.8112C89.5793 22.4753 88.5324 21.7688 87.2799 21.3513L87.2735 21.3448Z" fill="white"/>
<path d="M92.2255 10.4131L89.271 9.65525C89.104 9.61029 88.9498 9.52679 88.8214 9.41118L86.5092 7.33659C86.1045 6.97049 85.4943 6.96407 85.0897 7.32375C84.4667 7.87611 83.5611 8.58905 83.1243 8.92946C82.9573 9.05792 82.7582 9.13499 82.5463 9.14784L79.5532 9.35979C78.654 9.42402 78.2301 10.4966 78.8403 11.1582L80.2019 12.6355C80.4396 12.8924 80.5359 13.2456 80.4652 13.586L80.1056 15.2753C79.9193 16.1552 80.8314 16.8553 81.6342 16.4571L84.6337 14.967C84.9805 14.7935 85.3916 14.8256 85.7063 15.0376L88.5002 16.9131C89.1618 17.3563 90.0546 16.9516 90.1638 16.168L90.44 14.1577C90.4849 13.8494 90.6583 13.5732 90.9217 13.4062L92.5531 12.3464C93.3367 11.839 93.144 10.6379 92.2384 10.4067L92.2255 10.4131Z" fill="white"/>
<path d="M119.831 21.6275C119.163 20.876 118.2 20.375 117.243 20.0796C115.945 19.6621 114.526 19.54 113.235 19.8291C112.567 19.9511 111.854 20.2465 111.314 20.6191C110.229 21.4155 109.561 22.7515 109.188 24.0425C108.52 26.3418 108.398 28.7633 108.27 31.1397C105.135 29.1807 100.376 30.0543 98.0382 32.9317C97.1647 34.0557 96.4967 35.3531 96.1178 36.734C95.6553 38.4489 95.4883 40.2859 95.6168 42.0779C95.7003 43.7478 96.0343 45.5012 96.8307 46.9657C97.5372 48.3851 98.7062 49.599 100.004 50.4725C101.802 51.6415 104.307 51.9305 106.394 51.4745C108.148 51.057 109.779 50.267 111.276 49.3421C111.488 49.9716 111.822 50.6395 112.316 51.057C113.402 51.9755 115.072 52.0204 116.491 51.937C117.243 51.8535 118.078 51.6865 118.746 51.3139C119.163 51.0634 119.542 50.7295 119.747 50.2734C120.12 49.5605 120.12 48.642 120.037 47.8135C119.914 46.561 119.703 45.3471 119.58 44.0946C119.369 42.3797 119.285 40.6327 119.33 38.8793V37.6268C119.208 36.0789 120.37 28.5256 120.582 26.9777C120.666 26.0143 120.794 25.0573 120.704 24.0938C120.666 23.2139 120.415 22.3019 119.831 21.6339V21.6275ZM110.1 41.4163C108.18 46.0536 101.288 44.0882 102.335 39.2068C102.881 36.7405 105.758 35.321 108.096 36.323C108.135 36.323 108.347 36.5349 108.392 36.5735C108.976 37.0295 109.561 37.5369 109.895 38.1599C110.441 39.1169 110.524 40.3694 110.107 41.4163H110.1Z" fill="white"/>
<path d="M142.472 34.486C141.264 31.9426 138.753 29.7652 136.042 29.0138C134.411 28.5963 132.702 28.5577 131.071 28.7633C129.234 29.0138 127.397 29.8038 125.978 31.0177C124.558 32.2316 123.473 33.9851 122.972 35.777C122.182 38.7829 122.008 42.2063 123.139 45.1287C123.974 47.3831 125.727 49.2201 127.898 50.222C129.529 50.935 131.321 51.224 133.075 51.2625C134.539 51.2625 136.042 51.0956 137.378 50.556C139.299 49.7596 141.097 48.3016 142.138 46.5032C143.307 44.4993 143.685 41.9944 143.602 39.6115C143.563 37.858 143.268 36.0596 142.472 34.4732V34.486ZM137.841 41.2108C135.503 45.1351 129.658 43.0477 130.531 38.5389C130.698 37.7424 131.199 36.991 131.784 36.3679C131.996 36.1624 132.497 35.7 132.747 35.7449C132.914 35.7899 133.627 35.5779 133.788 35.533C134.501 35.4495 135.252 35.533 135.959 35.7835C138.046 36.5349 138.965 39.2454 137.841 41.2108Z" fill="white"/>
<path d="M163.808 29.6882C163.391 29.2707 162.845 29.0202 162.26 28.9367C161.297 28.7697 160.256 28.9817 159.293 29.2707C157.578 29.8552 156.037 31.0241 154.784 32.3215C154.746 31.4866 154.662 30.6066 154.328 29.8616C154.078 29.2771 153.577 28.7312 152.992 28.4807C152.286 28.1467 151.444 28.1467 150.654 28.1852C149.819 28.1852 148.984 28.3137 148.194 28.5192C147.61 28.6862 147.025 29.0202 146.608 29.5212C146.274 29.9387 146.062 30.5231 146.023 31.1076C145.856 32.0261 146.357 36.7019 146.396 37.6204C146.441 38.7894 146.441 45.9701 146.524 47.1391C146.563 47.8906 146.646 48.687 146.942 49.3935C147.154 49.8495 147.488 50.312 147.944 50.5625C148.695 50.98 149.575 51.1855 150.404 51.269C151.367 51.3525 152.324 51.3525 153.243 51.102C153.911 50.935 154.579 50.5625 154.996 50.0165C155.542 49.3935 155.876 48.5585 155.998 47.7171C156.332 45.7967 156.21 43.8377 156.165 41.9109C156.165 41.5383 156.538 40.1574 156.666 39.8234C157.084 38.86 158.002 38.192 159.049 38.07C160.012 37.948 160.969 37.948 161.933 37.948C162.601 37.948 163.314 37.781 163.815 37.3635C164.521 36.779 164.9 35.8156 164.984 34.9035C165.106 33.7731 165.106 32.6491 164.817 31.5636C164.65 30.8957 164.316 30.1827 163.815 29.6817L163.808 29.6882Z" fill="white"/>
<path d="M65.9303 33.741C65.4293 32.7005 64.5494 31.949 63.4639 31.57C61.3765 30.947 57.7861 31.3581 56.4887 33.1179C56.0327 33.8309 55.9492 34.7493 55.9877 35.5779C56.0263 37.1643 55.9877 38.7958 55.7758 40.3822C55.6088 41.6347 55.4033 42.9256 54.8573 44.0561C54.5683 44.6406 54.1508 45.27 53.5599 45.604C53.0204 45.8994 52.179 46.06 51.723 45.6489C50.843 44.936 50.8045 42.2256 50.843 41.0566C50.8816 38.9692 51.177 36.9203 51.055 34.8328C51.0164 33.9529 50.888 33.0794 50.4255 32.3279C49.9246 31.5765 49.0446 31.0755 48.1262 31.0755C46.8737 31.0755 45.5827 31.0755 44.3238 31.3709C43.6944 31.5379 43.0264 31.7884 42.5704 32.2894C42.1079 32.7454 41.9024 33.4134 41.7739 34.0428C41.6519 34.8393 41.6069 35.6293 41.6069 36.4257C41.5234 38.9756 41.395 41.6025 41.8125 44.1075C42.23 46.6509 43.7779 49.2457 45.9038 50.6202C49.7832 53.1252 54.883 51.4552 57.4265 47.5694C57.5485 49.4063 57.6384 51.3268 57.2209 53.1187C56.9704 54.2492 56.5529 55.5016 55.673 56.2916C54.5875 57.2936 52.7892 57.5441 51.3697 57.1716C50.1558 56.8376 49.1538 56.0476 47.9848 55.6236C47.8179 55.5723 47.6444 55.5337 47.471 55.5016L46.0773 53.2408C45.7304 52.6756 44.9854 52.5921 44.5165 53.0609L42.1529 55.4053C41.9795 55.5787 41.7611 55.6815 41.5234 55.7007L38.6781 55.9576C37.8817 56.0283 37.4449 56.9981 37.8945 57.6918L39.314 59.882C39.481 60.1389 39.5324 60.4665 39.4617 60.7812L38.7038 63.877C38.4854 64.7634 39.314 65.5149 40.104 65.1423L43.2448 63.6715C43.5274 63.5366 43.8549 63.543 44.1247 63.6908L44.2403 63.755C44.9083 64.4101 45.7433 64.9304 46.5782 65.3093C48.1197 65.9773 49.8796 66.2728 51.5431 66.4333C54.2985 66.6453 57.2209 66.3498 59.7258 65.2258C60.7278 64.7634 61.7298 64.1404 62.5198 63.3889C64.6907 61.3015 66.1937 58.3341 66.7396 55.3732C67.703 50.2798 67.1121 45.0195 66.9066 39.8812C66.7846 37.7938 66.7846 35.6229 65.9046 33.741H65.9303Z" fill="white"/>
<path d="M192.775 27.6778C193.405 26.9392 192.808 25.8087 191.844 25.9051L189.102 26.1748C188.697 26.2134 188.299 26.0207 188.08 25.6803L186.642 23.4066C186.173 22.668 185.074 22.7579 184.734 23.5672L183.777 25.8409C183.636 26.1813 183.327 26.4253 182.968 26.4831L180.906 26.8428C179.987 27.0034 179.686 28.1788 180.424 28.7568L181.882 29.9001C181.844 29.9322 181.799 29.9515 181.767 29.9836C181.182 30.4846 180.848 31.281 180.726 32.071C180.354 34.7044 181.022 37.4149 180.848 40.0868C180.81 40.7547 180.598 41.5062 180.058 41.9237C179.602 42.3797 178.806 42.4696 178.176 42.4247C177.759 42.4247 177.303 42.2127 177.052 41.8852C176.551 41.1337 176.596 40.0868 176.596 39.1683C176.635 36.7469 177.431 34.364 177.226 31.9875C177.142 30.9856 176.558 29.9836 175.723 29.4441C174.933 28.9881 173.969 28.7761 173.051 28.7761C172.01 28.7311 170.963 28.7311 170 29.1101C169.165 29.3991 168.497 30.1506 168.118 30.947C167.534 32.116 167.283 33.407 167.116 34.6659C166.866 36.5478 166.866 38.5067 166.949 40.3886C167.071 43.022 167.617 45.816 169.12 47.9483C170.417 49.7403 172.71 50.9542 174.881 51.2882C176.596 51.5387 178.388 51.6222 180.103 51.3717C181.69 51.1598 183.359 50.8707 184.695 49.9523C186.031 49.0723 187.117 47.7364 187.785 46.3169C188.954 43.8955 189.416 41.1401 189.577 38.4682C189.647 37.1836 189.647 35.9055 189.519 34.6209L190.335 35.0063C191.227 35.4302 192.178 34.531 191.799 33.6189L190.727 31.0305C190.572 30.658 190.637 30.2277 190.9 29.9194L192.788 27.6906L192.775 27.6778Z" fill="white"/>
<path d="M184.182 0.509117L181.118 3.74624C180.919 3.95819 180.668 4.10592 180.392 4.18942L175.158 5.73733C174.04 6.07132 173.616 7.42654 174.348 8.33216L177.187 11.8583C177.425 12.1538 177.553 12.5199 177.547 12.8924L177.521 17.4462C177.515 18.7757 179.005 19.5593 180.097 18.795L184.561 15.6735C185.062 15.3202 185.717 15.2817 186.256 15.5643L190.72 17.9087C191.812 18.4803 193.116 17.6903 193.116 16.4571V12.3593C193.116 11.9225 193.289 11.4986 193.604 11.1968L196.982 7.86329C197.939 6.91913 197.413 5.28773 196.09 5.0822L190.682 4.23438C190.335 4.18299 190.02 4.016 189.776 3.77193L186.52 0.483426C185.871 -0.171706 184.805 -0.158861 184.169 0.509117H184.182Z" fill="#612FF1"/>
<path d="M181.824 6.40529C181.953 6.40529 182.075 6.44383 182.191 6.52732C182.306 6.6044 182.415 6.71359 182.518 6.84204C182.621 6.9705 182.717 7.11823 182.807 7.2788C182.897 7.43937 182.981 7.59994 183.07 7.75409C183.154 7.90824 183.237 8.06239 183.308 8.20369C183.385 8.34499 183.456 8.46061 183.526 8.5441C183.546 8.56979 183.578 8.60191 183.61 8.65329C183.642 8.69825 183.687 8.74321 183.726 8.78817C183.771 8.83313 183.816 8.87167 183.86 8.90378C183.905 8.9359 183.95 8.95516 183.995 8.95516C184.034 8.95516 184.053 8.94232 184.072 8.91663C184.092 8.89094 184.092 8.86525 184.092 8.83955C184.092 8.60833 184.066 8.37068 184.015 8.13946C183.963 7.90824 183.938 7.67059 183.938 7.42652C183.938 7.30449 183.957 7.15676 183.995 6.98977C184.034 6.82278 184.098 6.6622 184.182 6.50805C184.265 6.35391 184.374 6.22545 184.503 6.11626C184.631 6.00707 184.785 5.95569 184.965 5.95569C185.145 5.95569 185.306 6.01992 185.434 6.14195C185.563 6.26399 185.672 6.42456 185.755 6.62367C185.839 6.82277 185.909 7.03473 185.961 7.27238C186.012 7.51002 186.051 7.74124 186.076 7.96604C186.102 8.19084 186.121 8.4028 186.128 8.58906C186.134 8.77533 186.141 8.91663 186.141 9.01939C186.141 9.13501 186.141 9.31485 186.141 9.56534C186.141 9.80941 186.121 10.0856 186.096 10.3875C186.07 10.6893 186.025 10.9976 185.974 11.3124C185.922 11.6271 185.845 11.9097 185.742 12.173C185.64 12.4364 185.518 12.6419 185.363 12.8089C185.209 12.9759 185.023 13.0594 184.805 13.0594C184.471 13.0594 184.182 12.963 183.938 12.7703C183.693 12.5777 183.488 12.34 183.315 12.051C183.141 11.762 182.993 11.4537 182.871 11.1132C182.749 10.7728 182.64 10.4645 182.537 10.1755C182.435 9.88648 182.338 9.64883 182.242 9.45615C182.152 9.26346 182.043 9.16712 181.934 9.16712C181.869 9.16712 181.818 9.19923 181.786 9.27631C181.754 9.35338 181.722 9.43046 181.709 9.5268C181.69 9.62314 181.683 9.71306 181.683 9.80298V9.98925C181.683 10.1948 181.683 10.3682 181.696 10.5159C181.702 10.6636 181.709 10.8049 181.722 10.9334C181.735 11.0683 181.741 11.2032 181.747 11.3509C181.754 11.4986 181.76 11.672 181.76 11.8776C181.76 11.9675 181.76 12.0959 181.76 12.2501C181.76 12.4042 181.735 12.5584 181.696 12.7061C181.657 12.8603 181.593 12.9887 181.516 13.0979C181.433 13.2071 181.317 13.2649 181.156 13.2649C180.977 13.2649 180.81 13.2071 180.655 13.0851C180.501 12.963 180.36 12.8089 180.232 12.6162C180.103 12.4235 179.994 12.2116 179.898 11.9675C179.801 11.7298 179.718 11.4858 179.653 11.2546C179.583 11.0169 179.538 10.7921 179.506 10.5737C179.474 10.3553 179.461 10.1755 179.461 10.0342C179.461 9.81583 179.474 9.57176 179.499 9.30842C179.525 9.04509 179.57 8.78175 179.634 8.51199C179.698 8.24223 179.788 7.98531 179.898 7.73482C180.007 7.48433 180.154 7.25953 180.328 7.06684C180.501 6.87416 180.72 6.72001 180.97 6.59797C181.221 6.48236 181.516 6.42456 181.857 6.42456L181.824 6.40529Z" fill="white"/>
<path d="M189.037 6.44383C189.48 6.44383 189.872 6.48237 190.219 6.55302C190.566 6.63009 190.855 6.74571 191.099 6.91912C191.337 7.08612 191.517 7.31734 191.645 7.59995C191.767 7.88255 191.831 8.23581 191.831 8.65972C191.831 9.02582 191.799 9.35981 191.728 9.64884C191.658 9.93787 191.542 10.1819 191.369 10.381C191.195 10.5802 190.964 10.7343 190.669 10.8306C190.373 10.927 189.994 10.9848 189.545 10.9848C189.474 10.9848 189.403 10.9848 189.326 10.9912C189.249 10.9912 189.204 11.0233 189.185 11.0683C189.23 11.2481 189.275 11.4215 189.326 11.5885C189.378 11.7555 189.403 11.929 189.403 12.1088C189.403 12.2244 189.384 12.3464 189.339 12.4621C189.294 12.5777 189.23 12.6933 189.146 12.7896C189.063 12.886 188.96 12.9695 188.838 13.0273C188.716 13.0851 188.581 13.1172 188.434 13.1172C188.177 13.1172 187.958 13.0401 187.778 12.886C187.599 12.7318 187.444 12.5327 187.329 12.2886C187.213 12.0446 187.117 11.7748 187.046 11.4729C186.976 11.1711 186.924 10.8756 186.892 10.5802C186.86 10.2847 186.841 10.0085 186.828 9.75161C186.815 9.49469 186.815 9.28916 186.815 9.13501C186.815 8.7111 186.828 8.33215 186.854 7.99816C186.879 7.66418 186.963 7.38157 187.098 7.15677C187.239 6.92555 187.457 6.75213 187.759 6.62367C188.061 6.50164 188.491 6.43741 189.044 6.43741L189.037 6.44383ZM189.538 9.78372C189.622 9.78372 189.692 9.73876 189.737 9.65526C189.782 9.57177 189.821 9.469 189.847 9.35339C189.872 9.23778 189.892 9.12859 189.898 9.0194C189.904 8.91021 189.911 8.82671 189.911 8.78175C189.911 8.73679 189.911 8.66614 189.911 8.56338C189.911 8.46061 189.892 8.35142 189.866 8.24223C189.84 8.13304 189.802 8.03028 189.757 7.94678C189.705 7.86328 189.635 7.81832 189.545 7.81832C189.506 7.81832 189.474 7.85044 189.436 7.90824C189.397 7.96605 189.365 8.0367 189.333 8.11378C189.301 8.19085 189.275 8.26792 189.256 8.345C189.236 8.42207 189.224 8.47346 189.224 8.49915C189.224 8.55053 189.224 8.64687 189.224 8.78818C189.224 8.92948 189.236 9.0772 189.262 9.22493C189.281 9.37266 189.313 9.50754 189.358 9.62315C189.403 9.73876 189.461 9.79657 189.538 9.79657V9.78372Z" fill="white"/>
</g>
<defs>
<clipPath id="clip0_184_5678">
<rect width="197.47" height="71" fill="white"/>
</clipPath>
</defs>
</svg>
