<svg width="190" height="154" viewBox="0 0 190 154" fill="none" xmlns="http://www.w3.org/2000/svg">
<path d="M82.2408 4.10593L57.5325 30.2127C55.9267 31.9221 53.9066 33.1135 51.6792 33.7869L9.4629 46.2705C0.449844 48.964 -2.96879 59.8936 2.93631 67.1973L25.8315 95.6351C27.748 98.0178 28.784 100.97 28.7322 103.975L28.5251 140.7C28.4733 151.423 40.4906 157.742 49.2965 151.578L85.2969 126.404C89.3373 123.555 94.6207 123.244 98.9718 125.523L134.972 144.43C143.778 149.04 154.293 142.669 154.293 132.723V99.6754C154.293 96.1531 155.692 92.7343 158.23 90.2998L185.477 63.416C193.195 55.8015 188.947 42.6445 178.276 40.9869L134.662 34.1495C131.864 33.7351 129.326 32.3883 127.358 30.4199L101.096 3.89874C95.8639 -1.38478 87.2652 -1.28118 82.1371 4.10593H82.2408Z" fill="#612FF1"/>
<path d="M63.2304 51.6574C64.2664 51.6574 65.2506 51.9682 66.183 52.6416C67.1154 53.2632 67.996 54.1438 68.8248 55.1798C69.6536 56.2158 70.4305 57.4071 71.1557 58.7021C71.8808 59.9971 72.5543 61.2921 73.2794 62.5353C73.9528 63.7784 74.6262 65.0216 75.196 66.1612C75.8176 67.3008 76.3873 68.2332 76.9571 68.9066C77.1125 69.1138 77.3716 69.3727 77.6306 69.7871C77.8895 70.1497 78.2521 70.5123 78.5629 70.8749C78.9255 71.2375 79.2882 71.5483 79.6508 71.8073C80.0134 72.0663 80.3759 72.2217 80.7385 72.2217C81.0493 72.2217 81.2047 72.1181 81.3601 71.9109C81.5155 71.7037 81.5155 71.4965 81.5155 71.2893C81.5155 69.4246 81.3083 67.508 80.8939 65.6432C80.4795 63.7784 80.2724 61.8619 80.2724 59.8935C80.2724 58.9093 80.4277 57.7179 80.7385 56.3712C81.0493 55.0244 81.5674 53.7294 82.2408 52.4862C82.9141 51.243 83.7947 50.2071 84.8307 49.3265C85.8667 48.4459 87.1099 48.0315 88.5603 48.0315C90.0106 48.0315 91.3055 48.5495 92.3415 49.5337C93.3775 50.5179 94.2581 51.8128 94.9315 53.4186C95.6048 55.0244 96.1747 56.7338 96.5891 58.6503C97.0035 60.5669 97.3142 62.4317 97.5214 64.2446C97.7286 66.0576 97.8841 67.767 97.9359 69.2692C97.9877 70.7713 98.0394 71.9109 98.0394 72.7397C98.0394 73.6721 98.0394 75.1225 98.0394 77.1426C98.0394 79.111 97.884 81.3384 97.6768 83.7729C97.4696 86.2075 97.107 88.6938 96.6926 91.232C96.2782 93.7702 95.6567 96.0493 94.8279 98.1731C93.9991 100.297 93.015 101.954 91.7718 103.301C90.5286 104.648 89.0265 105.321 87.2653 105.321C84.5717 105.321 82.2407 104.544 80.2724 102.99C78.304 101.436 76.6464 99.5199 75.2478 97.1889C73.8493 94.8579 72.6579 92.3716 71.6737 89.6262C70.6895 86.8809 69.809 84.3945 68.9802 82.0635C68.1514 79.7326 67.3743 77.816 66.5973 76.262C65.8721 74.7081 64.9916 73.9311 64.111 73.9311C63.5931 73.9311 63.1786 74.1901 62.9196 74.8117C62.6606 75.4333 62.4016 76.0548 62.298 76.8318C62.1426 77.6088 62.0908 78.334 62.0908 79.0592V80.5614C62.0908 82.2189 62.0909 83.6175 62.1945 84.8089C62.2463 86.0003 62.298 87.1399 62.4016 88.1759C62.5052 89.2636 62.557 90.3514 62.6088 91.5428C62.6606 92.7342 62.7124 94.1328 62.7124 95.7903C62.7124 96.5155 62.7124 97.5515 62.7124 98.7947C62.7124 100.038 62.5053 101.281 62.1945 102.472C61.8837 103.716 61.3656 104.752 60.744 105.632C60.0706 106.513 59.1382 106.979 57.8432 106.979C56.3929 106.979 55.0461 106.513 53.8029 105.529C52.5597 104.544 51.4201 103.301 50.3841 101.747C49.3482 100.193 48.4676 98.4839 47.6906 96.5155C46.9137 94.5989 46.2402 92.6306 45.7222 90.7658C45.1525 88.8492 44.79 87.0363 44.531 85.2751C44.272 83.5139 44.1683 82.0635 44.1683 80.924C44.1683 79.1628 44.2719 77.1944 44.4791 75.0707C44.6863 72.9469 45.0489 70.8231 45.5669 68.6476C46.0848 66.472 46.8101 64.4 47.6906 62.3799C48.5712 60.3597 49.7627 58.5467 51.1613 56.9928C52.5598 55.4388 54.321 54.1956 56.3412 53.2114C58.3613 52.279 60.7441 51.8128 63.4895 51.8128L63.2304 51.6574Z" fill="white"/>
<path d="M121.401 51.968C124.975 51.968 128.135 52.2788 130.932 52.8486C133.729 53.4702 136.06 54.4026 138.029 55.8012C139.945 57.1479 141.395 59.0127 142.431 61.2919C143.416 63.571 143.934 66.42 143.934 69.8387C143.934 72.7913 143.675 75.4848 143.105 77.8158C142.535 80.1468 141.603 82.1151 140.204 83.7209C138.806 85.3267 136.941 86.5699 134.558 87.3469C132.175 88.1239 129.119 88.59 125.493 88.59C124.923 88.59 124.353 88.59 123.732 88.6418C123.11 88.6418 122.748 88.9008 122.592 89.2634C122.955 90.7138 123.317 92.1124 123.732 93.4592C124.146 94.8059 124.354 96.2045 124.354 97.6549C124.354 98.5873 124.198 99.5715 123.836 100.504C123.473 101.436 122.955 102.369 122.282 103.146C121.608 103.923 120.779 104.596 119.795 105.062C118.811 105.528 117.723 105.787 116.532 105.787C114.46 105.787 112.699 105.166 111.248 103.923C109.798 102.679 108.555 101.074 107.622 99.1053C106.69 97.1369 105.913 94.9613 105.343 92.5268C104.773 90.0922 104.359 87.7095 104.1 85.3267C103.841 82.9439 103.686 80.7166 103.582 78.6446C103.478 76.5726 103.478 74.9151 103.478 73.6719C103.478 70.2531 103.582 67.197 103.789 64.5034C103.997 61.8099 104.67 59.5307 105.758 57.7177C106.897 55.853 108.658 54.4544 111.093 53.4184C113.527 52.4342 116.998 51.9162 121.453 51.9162L121.401 51.968ZM125.441 78.9036C126.115 78.9036 126.685 78.541 127.047 77.8676C127.41 77.1942 127.72 76.3654 127.928 75.433C128.135 74.5007 128.29 73.6201 128.342 72.7395C128.394 71.8589 128.446 71.1855 128.446 70.8229C128.446 70.4603 128.446 69.8905 128.446 69.0618C128.446 68.233 128.29 67.3524 128.083 66.4718C127.876 65.5912 127.565 64.7624 127.203 64.089C126.788 63.4156 126.218 63.0531 125.493 63.0531C125.182 63.0531 124.923 63.312 124.613 63.7782C124.302 64.2444 124.043 64.8142 123.784 65.4358C123.525 66.0574 123.318 66.679 123.162 67.3006C123.007 67.9222 122.903 68.3366 122.903 68.5438C122.903 68.9582 122.903 69.7351 122.903 70.8747C122.903 72.0143 123.007 73.2057 123.214 74.3971C123.369 75.5884 123.628 76.6762 123.991 77.6086C124.354 78.541 124.82 79.0072 125.441 79.0072V78.9036Z" fill="white"/>
</svg>
