<?xml version="1.0" encoding="UTF-8"?>
<svg version="1.1" xmlns="http://www.w3.org/2000/svg" width="158" height="149">
<path d="M0 0 C52.14 0 104.28 0 158 0 C158 49.17 158 98.34 158 149 C105.86 149 53.72 149 0 149 C0 99.83 0 50.66 0 0 Z " fill="#F3F3F3" transform="translate(0,0)"/>
<path d="M0 0 C2.03540039 0.43261719 2.03540039 0.43261719 5.03540039 2.43261719 C5.03540039 3.09261719 5.03540039 3.75261719 5.03540039 4.43261719 C5.69540039 4.43261719 6.35540039 4.43261719 7.03540039 4.43261719 C7.03540039 5.09261719 7.03540039 5.75261719 7.03540039 6.43261719 C7.69540039 6.43261719 8.35540039 6.43261719 9.03540039 6.43261719 C10.57391805 8.15213693 12.04271798 9.93449216 13.47290039 11.74511719 C16.48775608 15.59728721 16.48775608 15.59728721 19.82055664 19.16308594 C21.03540039 20.43261719 21.03540039 20.43261719 21.03540039 22.43261719 C21.69540039 22.43261719 22.35540039 22.43261719 23.03540039 22.43261719 C23.63352539 23.21636719 24.23165039 24.00011719 24.84790039 24.80761719 C28.53773669 29.23542074 33.02997452 29.73836228 38.55102539 30.61621094 C40.42854492 30.92461914 40.42854492 30.92461914 42.34399414 31.23925781 C44.95575435 31.65729475 47.56773158 32.07397826 50.17993164 32.48925781 C68.15143011 35.44764295 68.15143011 35.44764295 71.52905273 39.00634766 C73.75744637 42.18495835 74.03606556 44.45357015 74.16040039 48.37011719 C73.26766798 53.17207784 70.45301132 57.02407154 67.03540039 60.43261719 C66.37540039 60.43261719 65.71540039 60.43261719 65.03540039 60.43261719 C65.03540039 61.09261719 65.03540039 61.75261719 65.03540039 62.43261719 C64.37540039 62.43261719 63.71540039 62.43261719 63.03540039 62.43261719 C62.78790039 62.98949219 62.54040039 63.54636719 62.28540039 64.12011719 C60.80615221 66.85672632 59.100726 69.10912588 57.03540039 71.43261719 C56.37540039 71.43261719 55.71540039 71.43261719 55.03540039 71.43261719 C54.80852539 71.96886719 54.58165039 72.50511719 54.34790039 73.05761719 C53.03540039 75.43261719 53.03540039 75.43261719 50.48876953 78.06982422 C47.48515899 81.64457684 47.36691049 85.08201122 47.46899414 89.61230469 C47.46335953 90.38389923 47.45772491 91.15549377 47.45191956 91.95046997 C47.4355422 94.4034791 47.45093444 96.85467266 47.47290039 99.30761719 C47.48957848 101.75325377 47.49846552 104.197684 47.48316956 106.64334106 C47.47400126 108.15935708 47.48267528 109.67563137 47.51280212 111.19137573 C47.48554155 116.52731663 46.30862565 121.11744817 43.03540039 125.43261719 C39.56322889 127.54980873 37.10206681 127.94095049 33.03540039 127.43261719 C30.20810818 126.18334853 27.64614918 124.57991084 25.03540039 122.93261719 C23.52779593 122.01821161 22.01998011 121.10415441 20.51196289 120.19042969 C19.01904186 119.27235062 17.52683137 118.3531149 16.03540039 117.43261719 C13.50497921 115.87124194 10.9637236 114.33119356 8.41040039 112.80761719 C7.34563477 112.15535156 6.28086914 111.50308594 5.18383789 110.83105469 C1.32847113 109.11862131 -0.78348507 108.76671921 -4.96459961 109.43261719 C-7.91899065 111.0547536 -10.43506923 113.10176505 -13.02709961 115.24511719 C-13.76299316 115.8280957 -14.49888672 116.41107422 -15.25708008 117.01171875 C-18.85303751 119.86771942 -22.39522717 122.78758637 -25.93725586 125.70996094 C-26.86429321 126.46345825 -26.86429321 126.46345825 -27.81005859 127.23217773 C-28.96281525 128.17174795 -30.10511003 129.12436301 -31.234375 130.09204102 C-35.0510995 133.21363742 -38.05180429 134.23915389 -42.96459961 134.43261719 C-46.68270407 132.82707208 -48.98870479 130.95574173 -50.96459961 127.43261719 C-51.13604596 124.46267026 -51.14596773 121.69870418 -51.01928711 118.74121094 C-50.9823893 116.98234641 -50.95008655 115.22338076 -50.921875 113.46435547 C-50.90593292 112.54914124 -50.88999084 111.633927 -50.87356567 110.690979 C-50.65649233 92.66316472 -51.94967753 80.78493445 -64.96459961 67.43261719 C-69.97536693 61.55460168 -73.88310805 56.79638736 -73.73413086 48.81933594 C-72.41084257 44.71512709 -69.9261052 41.44938784 -66.09364319 39.46278381 C-63.88566947 38.65166258 -61.67060784 37.96905384 -59.40991211 37.31933594 C-57.72615399 36.78795544 -56.0425654 36.25603753 -54.35913086 35.72363281 C-51.72690027 34.91720283 -49.09216122 34.12087893 -46.45336914 33.33618164 C-33.22321503 29.75029422 -33.22321503 29.75029422 -24.01879883 20.16625977 C-23.67091309 19.59415771 -23.32302734 19.02205566 -22.96459961 18.43261719 C-22.30459961 18.43261719 -21.64459961 18.43261719 -20.96459961 18.43261719 C-20.68624268 17.84383789 -20.40788574 17.25505859 -20.12109375 16.6484375 C-18.29700429 13.15351751 -15.87979907 10.23400175 -13.40209961 7.18261719 C-12.91418945 6.53292969 -12.4262793 5.88324219 -11.92358398 5.21386719 C-8.2749684 0.76638698 -5.74955816 -0.29200143 0 0 Z " fill="#6D3EF1" transform="translate(77.964599609375,4.5673828125)"/>
<path d="M0 0 C2.03540039 0.43261719 2.03540039 0.43261719 5.03540039 2.43261719 C5.03540039 3.09261719 5.03540039 3.75261719 5.03540039 4.43261719 C5.69540039 4.43261719 6.35540039 4.43261719 7.03540039 4.43261719 C7.03540039 5.09261719 7.03540039 5.75261719 7.03540039 6.43261719 C7.69540039 6.43261719 8.35540039 6.43261719 9.03540039 6.43261719 C10.57391805 8.15213693 12.04271798 9.93449216 13.47290039 11.74511719 C16.48775608 15.59728721 16.48775608 15.59728721 19.82055664 19.16308594 C21.03540039 20.43261719 21.03540039 20.43261719 21.03540039 22.43261719 C21.69540039 22.43261719 22.35540039 22.43261719 23.03540039 22.43261719 C23.53040039 23.91761719 23.53040039 23.91761719 24.03540039 25.43261719 C21.39540039 25.43261719 18.75540039 25.43261719 16.03540039 25.43261719 C16.03540039 31.70261719 16.03540039 37.97261719 16.03540039 44.43261719 C11.74540039 44.43261719 7.45540039 44.43261719 3.03540039 44.43261719 C3.03540039 47.73261719 3.03540039 51.03261719 3.03540039 54.43261719 C1.04442193 51.4461495 0.09415113 48.83574457 -0.96459961 45.43261719 C-4.00846685 45.35035051 -6.03635309 45.45653501 -8.96459961 46.43261719 C-10.54926394 50.09092799 -10.07524778 54.26409713 -10.02709961 58.18261719 C-10.02258789 58.88 -10.01807617 59.57738281 -10.01342773 60.29589844 C-10.00169981 62.00817521 -9.98376614 63.72040752 -9.96459961 65.43261719 C-14.2267699 63.93053074 -15.48288469 61.29338109 -17.58959961 57.43261719 C-19.89114685 53.14251249 -19.89114685 53.14251249 -22.96459961 49.43261719 C-27.29146452 49.00702392 -29.82454298 48.86258887 -33.71459961 50.80761719 C-40.57895711 58.81603427 -40.93170632 68.3242011 -40.20532227 78.41748047 C-39.56881659 83.74579475 -37.87701966 88.81562133 -34.70288086 93.15917969 C-32.27898243 94.93488954 -29.89926322 95.00591021 -26.96459961 95.43261719 C-26.96983643 94.69100342 -26.97507324 93.94938965 -26.98046875 93.18530273 C-27.00123575 89.83024948 -27.01425891 86.47520974 -27.02709961 83.12011719 C-27.03547852 81.95287109 -27.04385742 80.785625 -27.05249023 79.58300781 C-27.05571289 78.46474609 -27.05893555 77.34648438 -27.06225586 76.19433594 C-27.06749268 75.16268311 -27.07272949 74.13103027 -27.078125 73.06811523 C-26.96459961 70.43261719 -26.96459961 70.43261719 -25.96459961 67.43261719 C-24.97459961 67.43261719 -23.98459961 67.43261719 -22.96459961 67.43261719 C-22.38126628 68.89095052 -21.79793294 70.34928385 -21.21459961 71.80761719 C-20.84850586 72.71640625 -20.48241211 73.62519531 -20.10522461 74.56152344 C-19.36832364 76.41639404 -18.64830355 78.27810088 -17.94897461 80.14746094 C-15.10504678 88.06207593 -15.10504678 88.06207593 -8.96459961 93.43261719 C-6.00671392 93.84937238 -6.00671392 93.84937238 -2.96459961 93.43261719 C0.32054597 90.49945149 0.99430765 86.59698817 2.03540039 82.43261719 C2.36540039 82.43261719 2.69540039 82.43261719 3.03540039 82.43261719 C3.03540039 91.01261719 3.03540039 99.59261719 3.03540039 108.43261719 C-1.91459961 109.42261719 -1.91459961 109.42261719 -6.96459961 110.43261719 C-10.16007027 112.36883731 -10.16007027 112.36883731 -12.77709961 114.93261719 C-13.78544366 115.83338023 -14.7959392 116.73173945 -15.80834961 117.62792969 C-16.57791992 118.32063965 -16.57791992 118.32063965 -17.36303711 119.02734375 C-20.07490341 121.40684107 -22.91871231 123.60815596 -25.77709961 125.80761719 C-26.79416992 126.59910156 -27.81124023 127.39058594 -28.85913086 128.20605469 C-37.47174928 134.38113959 -37.47174928 134.38113959 -42.58959961 134.55761719 C-46.70809443 133.18478558 -48.90633717 131.18295157 -50.96459961 127.43261719 C-51.54026772 124.43937219 -51.38502347 121.57859403 -51.21459961 118.54589844 C-51.17188859 116.79354397 -51.13304623 115.04109182 -51.09765625 113.28857422 C-51.0734964 112.38157776 -51.04933655 111.4745813 -51.02444458 110.5401001 C-50.6926553 95.04430572 -50.79991891 82.99439175 -61.57397461 70.91308594 C-62.70387971 69.75263435 -63.83406698 68.59245743 -64.96459961 67.43261719 C-69.97536693 61.55460168 -73.88310805 56.79638736 -73.73413086 48.81933594 C-72.41084257 44.71512709 -69.9261052 41.44938784 -66.09364319 39.46278381 C-63.88566947 38.65166258 -61.67060784 37.96905384 -59.40991211 37.31933594 C-57.72615399 36.78795544 -56.0425654 36.25603753 -54.35913086 35.72363281 C-51.72690027 34.91720283 -49.09216122 34.12087893 -46.45336914 33.33618164 C-33.22321503 29.75029422 -33.22321503 29.75029422 -24.01879883 20.16625977 C-23.67091309 19.59415771 -23.32302734 19.02205566 -22.96459961 18.43261719 C-22.30459961 18.43261719 -21.64459961 18.43261719 -20.96459961 18.43261719 C-20.68624268 17.84383789 -20.40788574 17.25505859 -20.12109375 16.6484375 C-18.29700429 13.15351751 -15.87979907 10.23400175 -13.40209961 7.18261719 C-12.91418945 6.53292969 -12.4262793 5.88324219 -11.92358398 5.21386719 C-8.2749684 0.76638698 -5.74955816 -0.29200143 0 0 Z " fill="#6534F1" transform="translate(77.964599609375,4.5673828125)"/>
<path d="M0 0 C3.61112392 1.67344767 4.22526663 3.80007273 5.73120117 7.3815918 C7.31942274 12.74236433 7.09458019 18.14082979 7 23.6875 C7.00708984 24.85925781 7.01417969 26.03101563 7.02148438 27.23828125 C6.96343952 35.19489153 5.88068439 41.66152096 2.25 48.75 C0.5625 50.1875 0.5625 50.1875 -2.25 50.75 C-6.38220868 50.0207867 -8.76396465 48.30031312 -11.4375 45.1875 C-15.77246771 38.60477126 -17.58022541 30.75545999 -19.4375 23.1875 C-20.4275 23.1875 -21.4175 23.1875 -22.4375 23.1875 C-22.43226318 23.92911377 -22.42702637 24.67072754 -22.42163086 25.43481445 C-22.40086386 28.78986771 -22.3878407 32.14490744 -22.375 35.5 C-22.36662109 36.66724609 -22.35824219 37.83449219 -22.34960938 39.03710938 C-22.34638672 40.15537109 -22.34316406 41.27363281 -22.33984375 42.42578125 C-22.33460693 43.45743408 -22.32937012 44.48908691 -22.32397461 45.55200195 C-22.4375 48.1875 -22.4375 48.1875 -23.4375 51.1875 C-26.125 51.5625 -26.125 51.5625 -29.4375 51.1875 C-35.18816847 45.97177744 -37.26402784 39.82091633 -37.7578125 32.1796875 C-38.10431429 23.1816889 -37.83892133 14.89111699 -32.1171875 7.4765625 C-29.50713605 4.8950362 -26.94722343 3.8161855 -23.375 3.5 C-19.29711433 4.21201178 -17.96266258 4.91420667 -15.58984375 8.26171875 C-13.83353851 11.19683225 -12.19464923 14.18346058 -10.6484375 17.234375 C-9.43953186 19.48577249 -9.43953186 19.48577249 -6.4375 21.1875 C-6.7675 20.1975 -7.0975 19.2075 -7.4375 18.1875 C-7.55703769 16.21095815 -7.61276196 14.23011544 -7.625 12.25 C-7.63917969 11.20972656 -7.65335938 10.16945313 -7.66796875 9.09765625 C-7.43673018 6.17777938 -7.06032228 4.59747196 -5.4375 2.1875 C-2.4375 0.1875 -2.4375 0.1875 0 0 Z " fill="#FDFDFD" transform="translate(74.4375,48.8125)"/>
<path d="M0 0 C18.0282442 1.03610599 18.0282442 1.03610599 22.4765625 5.47265625 C24.92780549 9.13284561 25.57605254 12.51131211 24.75390625 16.93359375 C23.34090269 20.80654134 20.90855006 24.09916492 18 27 C17.34 27 16.68 27 16 27 C16 27.66 16 28.32 16 29 C15.34 29 14.68 29 14 29 C13.7525 29.556875 13.505 30.11375 13.25 30.6875 C11.77075182 33.42410913 10.06532561 35.67650869 8 38 C7.34 38 6.68 38 6 38 C5.773125 38.53625 5.54625 39.0725 5.3125 39.625 C4 42 4 42 1.5 44.375 C-2.66842729 49.09675834 -2.44935649 56.00045134 -3 62 C-6.3 62 -9.6 62 -13 62 C-13 45.5 -13 29 -13 12 C-7.06 11.505 -7.06 11.505 -1 11 C-0.67 7.37 -0.34 3.74 0 0 Z " fill="#6433F1" transform="translate(127,38)"/>
<path d="M0 0 C3.46056587 2.30704392 4.83615941 4.20524758 6.8125 7.875 C7.3696349 10.89438036 7.37315163 13.81209267 7.3125 16.875 C7.32796875 17.65617187 7.3434375 18.43734375 7.359375 19.2421875 C7.31645296 25.61611083 5.37053041 29.31696959 0.8125 33.875 C-2.8125 34 -2.8125 34 -6.1875 33.875 C-6.0225 34.37 -5.8575 34.865 -5.6875 35.375 C-4.80503399 39.78733004 -4.4996996 44.15549901 -6.1875 48.375 C-6.5175 48.87 -6.8475 49.365 -7.1875 49.875 C-9.1675 49.875 -11.1475 49.875 -13.1875 49.875 C-13.84496104 48.52644038 -14.48781975 47.17075969 -15.125 45.8125 C-15.48464844 45.05839844 -15.84429687 44.30429688 -16.21484375 43.52734375 C-18.93034336 36.12242715 -18.40413295 28.09119406 -18.4375 20.3125 C-18.458125 19.10658203 -18.47875 17.90066406 -18.5 16.65820312 C-18.50515625 15.49095703 -18.5103125 14.32371094 -18.515625 13.12109375 C-18.5249707 12.06591553 -18.53431641 11.0107373 -18.54394531 9.92358398 C-18.12525005 6.3425924 -17.03763761 3.95326542 -15.1875 0.875 C-10.36596202 -2.07149543 -5.21471912 -1.8404891 0 0 Z " fill="#FDFCFE" transform="translate(106.1875,50.125)"/>
<path d="M0 0 C0 3.96 0 7.92 0 12 C1.98 12 3.96 12 6 12 C6 11.34 6 10.68 6 10 C6.66 10 7.32 10 8 10 C8 14.95 8 19.9 8 25 C7.34 25 6.68 25 6 25 C4.6728739 21.0186217 4.93084087 17.14954773 5 13 C3.35 13 1.7 13 0 13 C0 18.94 0 24.88 0 31 C4.62 31 9.24 31 14 31 C13.01 32.485 13.01 32.485 12 34 C8.375 34.1875 8.375 34.1875 5 34 C5.165 34.495 5.33 34.99 5.5 35.5 C6.38246601 39.91233004 6.6878004 44.28049901 5 48.5 C4.67 48.995 4.34 49.49 4 50 C2.02 50 0.04 50 -2 50 C-2.65746104 48.65144038 -3.30031975 47.29575969 -3.9375 45.9375 C-4.29714844 45.18339844 -4.65679687 44.42929688 -5.02734375 43.65234375 C-7.74284336 36.24742715 -7.21663295 28.21619406 -7.25 20.4375 C-7.270625 19.23158203 -7.29125 18.02566406 -7.3125 16.78320312 C-7.31765625 15.61595703 -7.3228125 14.44871094 -7.328125 13.24609375 C-7.3374707 12.19091553 -7.34681641 11.1357373 -7.35644531 10.04858398 C-6.93843345 6.4734373 -5.8455045 4.07350072 -4 1 C-2 0 -2 0 0 0 Z " fill="#F0EFF2" transform="translate(95,50)"/>
<path d="M0 0 C5.94 0 11.88 0 18 0 C18 3.96 18 7.92 18 12 C12.06 12 6.12 12 0 12 C0 8.04 0 4.08 0 0 Z " fill="#F5F5F5" transform="translate(63,133)"/>
<path d="M0 0 C5.94 0 11.88 0 18 0 C18 3.96 18 7.92 18 12 C12.06 12 6.12 12 0 12 C0 8.04 0 4.08 0 0 Z " fill="#612FF1" transform="translate(95,101)"/>
<path d="M0 0 C3.96 0 7.92 0 12 0 C12 5.94 12 11.88 12 18 C8.37 18 4.74 18 1 18 C-0.59412284 14.81175432 -0.10174735 11.37103338 -0.0625 7.875 C-0.05798828 7.12089844 -0.05347656 6.36679688 -0.04882812 5.58984375 C-0.03703499 3.72652873 -0.01909942 1.86325445 0 0 Z " fill="#612FF1" transform="translate(18,63)"/>
<path d="M0 0 C1.65 0 3.3 0 5 0 C5 5.94 5 11.88 5 18 C0.38 18 -4.24 18 -9 18 C-8.67 16.68 -8.34 15.36 -8 14 C-7.93256652 11.91765408 -7.91485528 9.83331443 -7.9375 7.75 C-7.94652344 6.67234375 -7.95554687 5.5946875 -7.96484375 4.484375 C-7.97644531 3.66453125 -7.98804687 2.8446875 -8 2 C-6.865625 1.855625 -5.73125 1.71125 -4.5625 1.5625 C-1.19222799 1.38828522 -1.19222799 1.38828522 0 0 Z " fill="#612FF1" transform="translate(108,82)"/>
<path d="M0 0 C5.61 0 11.22 0 17 0 C17 3.96 17 7.92 17 12 C11.39 12 5.78 12 0 12 C0 8.04 0 4.08 0 0 Z " fill="#F5F5F5" transform="translate(0,101)"/>
<path d="M0 0 C3.96 0 7.92 0 12 0 C12 5.61 12 11.22 12 17 C8.04 17 4.08 17 0 17 C0 11.39 0 5.78 0 0 Z " fill="#F5F5F5" transform="translate(18,0)"/>
<path d="M0 0 C12.66970387 0.77904328 12.66970387 0.77904328 18 3 C18 5.64 18 8.28 18 11 C12.06 11 6.12 11 0 11 C0 7.37 0 3.74 0 0 Z " fill="#612FF1" transform="translate(127,38)"/>
<path d="M0 0 C1.8203125 0.37890625 1.8203125 0.37890625 2.8203125 1.37890625 C2.96341537 5.04806395 2.86252912 8.70606066 2.8203125 12.37890625 C-3.1196875 12.37890625 -9.0596875 12.37890625 -15.1796875 12.37890625 C-13.15995569 4.29997901 -8.53549961 -0.67994658 0 0 Z " fill="#612FF1" transform="translate(78.1796875,4.62109375)"/>
<path d="M0 0 C4.3785374 1.75141496 7.97072742 3.62983966 12 6 C12 9.63 12 13.26 12 17 C8.04 17 4.08 17 0 17 C0 11.39 0 5.78 0 0 Z " fill="#F3F3F4" transform="translate(82,115)"/>
<path d="M0 0 C1.98 0 3.96 0 6 0 C6.36351562 1.19496094 6.36351562 1.19496094 6.734375 2.4140625 C8.5656397 8.20367628 10.25846232 13.18945156 14 18 C9.38 18 4.76 18 0 18 C0 12.06 0 6.12 0 0 Z " fill="#612FF1" transform="translate(31,82)"/>
<path d="M0 0 C3.3 0 6.6 0 10 0 C10.56968796 12.04784547 10.56968796 12.04784547 7 16 C4.35582586 17.73523928 3.21534057 18 0 18 C0 12.06 0 6.12 0 0 Z " fill="#612FF1" transform="translate(114,114)"/>
<path d="M0 0 C5.94 0 11.88 0 18 0 C18 0.99 18 1.98 18 3 C16 4.33333333 14 5.66666667 12 7 C11.3503125 8.36125 11.3503125 8.36125 10.6875 9.75 C9 12 9 12 6.8203125 12.31640625 C4.54443264 12.31286127 2.26993073 12.16448773 0 12 C0 8.04 0 4.08 0 0 Z " fill="#612FF1" transform="translate(31,50)"/>
<path d="M0 0 C5.94 0.99 5.94 0.99 12 2 C12 5.96 12 9.92 12 14 C8.04 14 4.08 14 0 14 C0 9.38 0 4.76 0 0 Z " fill="#612FF1" transform="translate(114,35)"/>
<path d="M0 0 C3.96 0 7.92 0 12 0 C12 3.96 12 7.92 12 12 C8.04 12 4.08 12 0 12 C0 8.04 0 4.08 0 0 Z " fill="#F5F5F5" transform="translate(146,133)"/>
<path d="M0 0 C3.96 0 7.92 0 12 0 C12 3.96 12 7.92 12 12 C8.04 12 4.08 12 0 12 C0 8.04 0 4.08 0 0 Z " fill="#F5F5F5" transform="translate(146,101)"/>
<path d="M0 0 C3.96 0 7.92 0 12 0 C12 3.96 12 7.92 12 12 C8.04 12 4.08 12 0 12 C0 8.04 0 4.08 0 0 Z " fill="#612FF1" transform="translate(82,101)"/>
<path d="M0 0 C3.96 0 7.92 0 12 0 C12 3.96 12 7.92 12 12 C8.04 12 4.08 12 0 12 C0 8.04 0 4.08 0 0 Z " fill="#612FF1" transform="translate(50,101)"/>
<path d="M0 0 C1.98 0 3.96 0 6 0 C6.27714844 1.04800781 6.55429688 2.09601563 6.83984375 3.17578125 C7.20567952 4.55470067 7.57156767 5.9336062 7.9375 7.3125 C8.11990234 8.00279297 8.30230469 8.69308594 8.49023438 9.40429688 C9.2593261 12.29887844 10.05261576 15.15784729 11 18 C7.37 18 3.74 18 0 18 C0 12.06 0 6.12 0 0 Z " fill="#6130F1" transform="translate(82,82)"/>
<path d="M0 0 C3.96 0 7.92 0 12 0 C12 3.96 12 7.92 12 12 C8.04 12 4.08 12 0 12 C0 8.04 0 4.08 0 0 Z " fill="#612FF1" transform="translate(114,50)"/>
<path d="M0 0 C3.96 0 7.92 0 12 0 C12 3.96 12 7.92 12 12 C8.04 12 4.08 12 0 12 C0 8.04 0 4.08 0 0 Z " fill="#F5F5F5" transform="translate(146,18)"/>
<path d="M0 0 C3.96 0 7.92 0 12 0 C12 3.96 12 7.92 12 12 C8.04 12 4.08 12 0 12 C0 8.04 0 4.08 0 0 Z " fill="#F5F5F5" transform="translate(114,18)"/>
<path d="M0 0 C3.96 0 7.92 0 12 0 C12 3.96 12 7.92 12 12 C8.04 12 4.08 12 0 12 C0 8.04 0 4.08 0 0 Z " fill="#F5F5F5" transform="translate(18,18)"/>
<path d="M0 0 C5.94 0 11.88 0 18 0 C18 2.97 18 5.94 18 9 C5.33029613 8.22095672 5.33029613 8.22095672 0 6 C0 4.02 0 2.04 0 0 Z " fill="#F4F4F4" transform="translate(127,31)"/>
<path d="M0 0 C1.60875 -0.04125 3.2175 -0.0825 4.875 -0.125 C5.77992187 -0.14820312 6.68484375 -0.17140625 7.6171875 -0.1953125 C10 0 10 0 12 2 C12.27450545 5.34896654 12.08628804 8.63476663 12 12 C8.04 12 4.08 12 0 12 C0 8.04 0 4.08 0 0 Z " fill="#612FF1" transform="translate(82,18)"/>
<path d="M0 0 C0.99 0 1.98 0 3 0 C6.94367166 4.05881535 9.40219623 8.35129119 9.375 14.0625 C9.25125 15.361875 9.1275 16.66125 9 18 C6.03 18 3.06 18 0 18 C0 12.06 0 6.12 0 0 Z " fill="#F3F3F4" transform="translate(18,82)"/>
<path d="M0 0 C0 4.95 0 9.9 0 15 C-4.95 15 -9.9 15 -15 15 C-14.01 13.35 -13.02 11.7 -12 10 C-11.34 10 -10.68 10 -10 10 C-9.67 9.01 -9.34 8.02 -9 7 C-7.1875 5.17578125 -7.1875 5.17578125 -5 3.3125 C-3.9171875 2.37857422 -3.9171875 2.37857422 -2.8125 1.42578125 C-1 0 -1 0 0 0 Z " fill="#F4F3F4" transform="translate(145,66)"/>
<path d="M0 0 C3.3 0 6.6 0 10 0 C10 3.96 10 7.92 10 12 C6.7 12 3.4 12 0 12 C0 8.04 0 4.08 0 0 Z " fill="#612FF1" transform="translate(114,101)"/>
<path d="M0 0 C3.96 0 7.92 0 12 0 C12 2.64 12 5.28 12 8 C8.04 9.32 4.08 10.64 0 12 C0 8.04 0 4.08 0 0 Z " fill="#F4F3F4" transform="translate(18,31)"/>
<path d="M0 0 C0.33 0 0.66 0 1 0 C1 5.61 1 11.22 1 17 C4.96 17 8.92 17 13 17 C13 17.33 13 17.66 13 18 C9.04 18 5.08 18 1 18 C1 21.96 1 25.92 1 30 C4.3 30 7.6 30 11 30 C11 30.33 11 30.66 11 31 C7.7 31 4.4 31 1 31 C1 34.96 1 38.92 1 43 C0.67 43 0.34 43 0 43 C0 39.04 0 35.08 0 31 C-5.61 31 -11.22 31 -17 31 C-17 30.67 -17 30.34 -17 30 C-11.39 30 -5.78 30 0 30 C0 26.04 0 22.08 0 18 C-5.61 18 -11.22 18 -17 18 C-17 17.67 -17 17.34 -17 17 C-11.39 17 -5.78 17 0 17 C0 11.39 0 5.78 0 0 Z M13 0 C13.33 0 13.66 0 14 0 C14 5.61 14 11.22 14 17 C13.67 17 13.34 17 13 17 C13 11.39 13 5.78 13 0 Z " fill="#E8E8E8" transform="translate(17,0)"/>
<path d="M0 0 C2.64 0 5.28 0 8 0 C7.34 5.94 6.68 11.88 6 18 C4.02 18 2.04 18 0 18 C0 12.06 0 6.12 0 0 Z " fill="#612FF1" transform="translate(31,63)"/>
<path d="M0 0 C4.29 0 8.58 0 13 0 C12.67 0.66 12.34 1.32 12 2 C9.69 2 7.38 2 5 2 C5.165 2.495 5.33 2.99 5.5 3.5 C6.38246601 7.91233004 6.6878004 12.28049901 5 16.5 C4.67 16.995 4.34 17.49 4 18 C2.68 18 1.36 18 0 18 C0 12.06 0 6.12 0 0 Z " fill="#FEFEFE" transform="translate(95,82)"/>
<path d="M0 0 C2.97 0 5.94 0 9 0 C9 3.96 9 7.92 9 12 C6.03 12 3.06 12 0 12 C0 8.04 0 4.08 0 0 Z " fill="#F5F5F5" transform="translate(18,101)"/>
<path d="M0 0 C1.98 0 3.96 0 6 0 C6 5.94 6 11.88 6 18 C4.02 18 2.04 18 0 18 C0 12.06 0 6.12 0 0 Z " fill="#FFFFFF" transform="translate(88,63)"/>
<path d="M0 0 C1.98 0 3.96 0 6 0 C6 5.94 6 11.88 6 18 C4.02 18 2.04 18 0 18 C0 12.06 0 6.12 0 0 Z " fill="#612FF1" transform="translate(82,63)"/>
<path d="M0 0 C0 3.3 0 6.6 0 10 C-3.96 10 -7.92 10 -12 10 C-12 8.02 -12 6.04 -12 4 C-10.3767313 3.3291288 -8.75132422 2.66342971 -7.125 2 C-6.22007813 1.62875 -5.31515625 1.2575 -4.3828125 0.875 C-2 0 -2 0 0 0 Z " fill="#6230F1" transform="translate(30,39)"/>
<path d="M0 0 C0.33 0 0.66 0 1 0 C1 5.94 1 11.88 1 18 C4.3 18 7.6 18 11 18 C11 18.33 11 18.66 11 19 C7.7 19 4.4 19 1 19 C0.67 19.99 0.34 20.98 0 22 C0 21.01 0 20.02 0 19 C-5.94 19 -11.88 19 -18 19 C-18 22.96 -18 26.92 -18 31 C-18.33 31 -18.66 31 -19 31 C-19 26.71 -19 22.42 -19 18 C-12.73 18 -6.46 18 0 18 C0 12.06 0 6.12 0 0 Z M-32 31 C-27.71 31 -23.42 31 -19 31 C-19 31.33 -19 31.66 -19 32 C-22.96 32 -26.92 32 -31 32 C-31 36.95 -31 41.9 -31 47 C-31.33 47 -31.66 47 -32 47 C-32 41.72 -32 36.44 -32 31 Z " fill="#794EF3" transform="translate(49,31)"/>
<path d="M0 0 C3.63 0 7.26 0 11 0 C10.01 0.495 10.01 0.495 9 1 C8.08719862 3.57437581 8.08719862 3.57437581 7.375 6.5625 C6.98441406 8.08037109 6.98441406 8.08037109 6.5859375 9.62890625 C6.39257812 10.41136719 6.19921875 11.19382812 6 12 C4.02 12 2.04 12 0 12 C0 8.04 0 4.08 0 0 Z " fill="#612FF1" transform="translate(82,50)"/>
<path d="M0 0 C2.97 0 5.94 0 9 0 C9 5.94 9 11.88 9 18 C8.01 18 7.02 18 6 18 C5.98582031 17.43152344 5.97164062 16.86304687 5.95703125 16.27734375 C5.56772256 9.97475164 3.90802868 6.91008731 0 2 C0 1.34 0 0.68 0 0 Z " fill="#6230F1" transform="translate(21,82)"/>
<path d="M0 0 C0.66 0 1.32 0 2 0 C2 3.96 2 7.92 2 12 C-1.63 12 -5.26 12 -9 12 C-7 8 -7 8 -5 5 C-4.34 5 -3.68 5 -3 5 C-2.690625 4.360625 -2.38125 3.72125 -2.0625 3.0625 C-1 1 -1 1 0 0 Z " fill="#612FF1" transform="translate(60,18)"/>
<path d="M0 0 C5.61 0 11.22 0 17 0 C17 0.66 17 1.32 17 2 C14.73117913 2.83919398 12.46022973 3.67151724 10.1875 4.5 C9.22360352 4.85771484 9.22360352 4.85771484 8.24023438 5.22265625 C5.35066261 6.27068746 3.09923939 7 0 7 C0 4.69 0 2.38 0 0 Z " fill="#F2F2F4" transform="translate(31,31)"/>
<path d="M0 0 C2.1875 -0.375 2.1875 -0.375 5 0 C7.84647434 2.91116694 9.70842657 5.12527971 11 9 C7.37 9 3.74 9 0 9 C0 6.03 0 3.06 0 0 Z " fill="#FEFDFE" transform="translate(50,53)"/>
<path d="M0 0 C5.28 0 10.56 0 16 0 C10.11111111 5.88888889 10.11111111 5.88888889 4 6 C1.5625 5.0625 1.5625 5.0625 0 4 C0 2.68 0 1.36 0 0 Z " fill="#6130F1" transform="translate(31,133)"/>
<path d="M0 0 C1.65 0 3.3 0 5 0 C5 5.94 5 11.88 5 18 C0.72119197 13.72119197 -0.11569195 10.04492143 -0.125 4.125 C-0.09322822 2.74973578 -0.05498128 1.37453198 0 0 Z " fill="#FEFEFE" transform="translate(89,82)"/>
<path d="M0 0 C3.3 0 6.6 0 10 0 C10 4.29 10 8.58 10 13 C5.7181939 9.08520585 2.96203144 4.99313871 0 0 Z " fill="#6230F1" transform="translate(7,63)"/>
<path d="M0 0 C3.96 0 7.92 0 12 0 C12 3.96 12 7.92 12 12 C9 9 9 9 7.125 6.375 C4.72523271 3.69290714 3.51547883 3.29295657 0 3 C0 2.01 0 1.02 0 0 Z " fill="#6231F1" transform="translate(50,50)"/>
<path d="M0 0 C0.33 0 0.66 0 1 0 C1 4.29 1 8.58 1 13 C-4.94 13 -10.88 13 -17 13 C-17 11.02 -17 9.04 -17 7 C-15.700625 7.99 -15.700625 7.99 -14.375 9 C-10.75300444 11.14636774 -9.11453382 11.73147268 -5 11 C-1.71485442 8.06683431 -1.04109274 4.16437098 0 0 Z " fill="#6331F1" transform="translate(80,87)"/>
<path d="M0 0 C0.33 0 0.66 0 1 0 C1 5.28 1 10.56 1 16 C6.94 16 12.88 16 19 16 C19 16.33 19 16.66 19 17 C13.06 17 7.12 17 1 17 C1 20.3 1 23.6 1 27 C-1.90408342 23.12788877 -2.85079464 20.59682146 -4 16 C-2.68 16 -1.36 16 0 16 C0 10.72 0 5.44 0 0 Z " fill="#F2F2F2" transform="translate(62,65)"/>
<path d="M0 0 C0 3.3 0 6.6 0 10 C-3.96 10 -7.92 10 -12 10 C-2.28571429 0 -2.28571429 0 0 0 Z " fill="#F3F2F4" transform="translate(62,122)"/>
<path d="M0 0 C3.96 0 7.92 0 12 0 C12 1.98 12 3.96 12 6 C10.56208484 5.85831863 9.1246763 5.71148957 7.6875 5.5625 C6.88699219 5.48128906 6.08648437 5.40007813 5.26171875 5.31640625 C3 5 3 5 0 4 C0 2.68 0 1.36 0 0 Z " fill="#F3F2F4" transform="translate(114,31)"/>
<path d="M0 0 C3.3 0 6.6 0 10 0 C8.625 2.5 8.625 2.5 7 5 C6.34 5 5.68 5 5 5 C4.731875 5.61875 4.46375 6.2375 4.1875 6.875 C3 9 3 9 0 11 C0 7.37 0 3.74 0 0 Z " fill="#F3F3F4" transform="translate(50,18)"/>
<path d="M0 0 C0 2.97 0 5.94 0 9 C-2.97 9 -5.94 9 -9 9 C-7.67183131 4.6532661 -5.0855272 0 0 0 Z " fill="#FCFCFE" transform="translate(49,53)"/>
<path d="M0 0 C2.31 0 4.62 0 7 0 C6.690625 0.680625 6.38125 1.36125 6.0625 2.0625 C4.86629351 5.36965912 4.40994603 8.51545878 4 12 C2.68 12 1.36 12 0 12 C0 8.04 0 4.08 0 0 Z " fill="#612FF1" transform="translate(63,50)"/>
<path d="M0 0 C0 3.96 0 7.92 0 12 C-1.98 12 -3.96 12 -6 12 C-5.50909091 4.63636364 -5.50909091 4.63636364 -3 1.5 C-1 0 -1 0 0 0 Z " fill="#FCFBFE" transform="translate(94,50)"/>
<path d="M0 0 C5.94 0 11.88 0 18 0 C18 0.99 18 1.98 18 3 C12.06 3 6.12 3 0 3 C0 2.01 0 1.02 0 0 Z " fill="#F5F5F5" transform="translate(127,146)"/>
<path d="M0 0 C5.94 0 11.88 0 18 0 C18 0.99 18 1.98 18 3 C12.06 3 6.12 3 0 3 C0 2.01 0 1.02 0 0 Z " fill="#F5F5F5" transform="translate(95,146)"/>
<path d="M0 0 C5.94 0 11.88 0 18 0 C18 0.99 18 1.98 18 3 C12.06 3 6.12 3 0 3 C0 2.01 0 1.02 0 0 Z " fill="#F5F5F5" transform="translate(63,146)"/>
<path d="M0 0 C5.94 0 11.88 0 18 0 C18 0.99 18 1.98 18 3 C12.06 3 6.12 3 0 3 C0 2.01 0 1.02 0 0 Z " fill="#F5F5F5" transform="translate(31,146)"/>
<path d="M0 0 C0.99 0 1.98 0 3 0 C3 5.94 3 11.88 3 18 C2.01 18 1.02 18 0 18 C0 12.06 0 6.12 0 0 Z " fill="#612FF1" transform="translate(27,114)"/>
<path d="M0 0 C0.99 0 1.98 0 3 0 C3.50403768 1.29009643 4.00309926 2.58213789 4.5 3.875 C4.7784375 4.59429687 5.056875 5.31359375 5.34375 6.0546875 C6 8 6 8 6 10 C3.69 10 1.38 10 -1 10 C-1.125 3.375 -1.125 3.375 0 0 Z " fill="#6F42F1" transform="translate(52,72)"/>
<path d="M0 0 C5.61 0 11.22 0 17 0 C17 0.99 17 1.98 17 3 C11.39 3 5.78 3 0 3 C0 2.01 0 1.02 0 0 Z " fill="#F5F5F5" transform="translate(0,146)"/>
<path d="M0 0 C1.65 0 3.3 0 5 0 C5.3125 3.1875 5.3125 3.1875 5 7 C2.5 9.9375 2.5 9.9375 0 12 C0 8.04 0 4.08 0 0 Z " fill="#6130F1" transform="translate(146,50)"/>
<path d="M0 0 C0.33 0.66 0.66 1.32 1 2 C1.66 2 2.32 2 3 2 C3 2.66 3 3.32 3 4 C3.66 4 4.32 4 5 4 C6.38938077 5.96147874 7.7260411 7.96166576 9 10 C6.03 10 3.06 10 0 10 C0 6.7 0 3.4 0 0 Z " fill="#6231F1" transform="translate(82,7)"/>
<path d="M0 0 C3.63 0 7.26 0 11 0 C11 2.31 11 4.62 11 7 C9.35063087 6.21572648 7.70558873 5.42234741 6.0625 4.625 C5.14597656 4.18414062 4.22945313 3.74328125 3.28515625 3.2890625 C1 2 1 2 0 0 Z " fill="#612FF1" transform="translate(83,114)"/>
<path d="M0 0 C0 1.98 0 3.96 0 6 C-3.3 6 -6.6 6 -10 6 C-7.19702254 2.26269672 -4.93315887 0 0 0 Z " fill="#6332F1" transform="translate(17,43)"/>
<path d="M0 0 C0.66 0 1.32 0 2 0 C2 4.95 2 9.9 2 15 C1.34 15 0.68 15 0 15 C-1.6117046 10.1648862 -1.60116168 4.80348505 0 0 Z " fill="#6635F1" transform="translate(101,60)"/>
<path d="M0 0 C3.96 0 7.92 0 12 0 C12 0.99 12 1.98 12 3 C8.04 3 4.08 3 0 3 C0 2.01 0 1.02 0 0 Z " fill="#F5F5F5" transform="translate(146,146)"/>
<path d="M0 0 C3.96 0 7.92 0 12 0 C12 0.99 12 1.98 12 3 C8.04 3 4.08 3 0 3 C0 2.01 0 1.02 0 0 Z " fill="#F5F5F5" transform="translate(114,146)"/>
<path d="M0 0 C3.96 0 7.92 0 12 0 C12 0.99 12 1.98 12 3 C8.04 3 4.08 3 0 3 C0 2.01 0 1.02 0 0 Z " fill="#F5F5F5" transform="translate(82,146)"/>
<path d="M0 0 C3.96 0 7.92 0 12 0 C12 0.99 12 1.98 12 3 C8.04 3 4.08 3 0 3 C0 2.01 0 1.02 0 0 Z " fill="#F5F5F5" transform="translate(50,146)"/>
<path d="M0 0 C3.96 0 7.92 0 12 0 C12 0.99 12 1.98 12 3 C8.04 3 4.08 3 0 3 C0 2.01 0 1.02 0 0 Z " fill="#F5F5F5" transform="translate(18,146)"/>
<path d="M0 0 C0.99 0 1.98 0 3 0 C3 3.96 3 7.92 3 12 C2.01 12 1.02 12 0 12 C0 8.04 0 4.08 0 0 Z " fill="#612FF1" transform="translate(27,101)"/>
<path d="M0 0 C2 1.375 2 1.375 4 3 C4 3.66 4 4.32 4 5 C4.66 5 5.32 5 6 5 C6.33 5.99 6.66 6.98 7 8 C4.69 8 2.38 8 0 8 C0 5.36 0 2.72 0 0 Z " fill="#6231F1" transform="translate(95,22)"/>
<path d="M0 0 C2.64 0 5.28 0 8 0 C3.375 4.875 3.375 4.875 0 6 C0 4.02 0 2.04 0 0 Z " fill="#6331F1" transform="translate(63,114)"/>
<path d="M0 0 C3 1 3 1 5 4 C5 4.99 5 5.98 5 7 C3.35 7 1.7 7 0 7 C0 4.69 0 2.38 0 0 Z " fill="#6332F1" transform="translate(146,42)"/>
<path d="M0 0 C1.32 0 2.64 0 4 0 C4.33 2.31 4.66 4.62 5 7 C3.0625 6.3125 3.0625 6.3125 1 5 C0.25 2.375 0.25 2.375 0 0 Z " fill="#6737F1" transform="translate(63,63)"/>
<path d="M0 0 C2.31 0 4.62 0 7 0 C7 2.64 7 5.28 7 8 C6.401875 7.236875 5.80375 6.47375 5.1875 5.6875 C3.53040668 3.6516425 1.89702326 1.8021721 0 0 Z " fill="#6332F1" transform="translate(106,50)"/>
<path d="M0 0 C2.64 0 5.28 0 8 0 C8 1.32 8 2.64 8 4 C2.25 3.125 2.25 3.125 0 2 C0 1.34 0 0.68 0 0 Z " fill="#F3F2F4" transform="translate(105,31)"/>
<path d="M0 0 C1.32 0 2.64 0 4 0 C4 2.97 4 5.94 4 9 C2.00902154 6.01353231 1.05875074 3.40312738 0 0 Z " fill="#6535F1" transform="translate(77,50)"/>
<path d="M0 0 C0.99 0 1.98 0 3 0 C3 2.64 3 5.28 3 8 C0.37613513 4.93882432 0 4.26826873 0 0 Z " fill="#FCFBFE" transform="translate(59,82)"/>
</svg>
